<?xml version="1.0" encoding="UTF-8" standalone="no"?>
<!-- Created with Inkscape (http://www.inkscape.org/) -->

<svg
   xmlns:dc="http://purl.org/dc/elements/1.1/"
   xmlns:cc="http://creativecommons.org/ns#"
   xmlns:rdf="http://www.w3.org/1999/02/22-rdf-syntax-ns#"
   xmlns:svg="http://www.w3.org/2000/svg"
   xmlns="http://www.w3.org/2000/svg"
   xmlns:sodipodi="http://sodipodi.sourceforge.net/DTD/sodipodi-0.dtd"
   xmlns:inkscape="http://www.inkscape.org/namespaces/inkscape"
   width="297mm"
   height="210mm"
   viewBox="0 0 1052.3622 744.09448"
   id="svg2"
   version="1.1"
   inkscape:version="0.91 r13725"
   sodipodi:docname="dances.svg">
  <defs
     id="defs4" />
  <sodipodi:namedview
     id="base"
     pagecolor="#ffffff"
     bordercolor="#666666"
     borderopacity="1.0"
     inkscape:pageopacity="0.0"
     inkscape:pageshadow="2"
     inkscape:zoom="0.37802734"
     inkscape:cx="505.56683"
     inkscape:cy="473.28619"
     inkscape:document-units="px"
     inkscape:current-layer="layer1"
     showgrid="false"
     inkscape:window-width="1276"
     inkscape:window-height="755"
     inkscape:window-x="4"
     inkscape:window-y="1"
     inkscape:window-maximized="1"
     objecttolerance="20" />
  <metadata
     id="metadata7">
    <rdf:RDF>
      <cc:Work
         rdf:about="">
        <dc:format>image/svg+xml</dc:format>
        <dc:type
           rdf:resource="http://purl.org/dc/dcmitype/StillImage" />
        <dc:title></dc:title>
      </cc:Work>
    </rdf:RDF>
  </metadata>
  <g
     inkscape:label="Layer 1"
     inkscape:groupmode="layer"
     id="layer1"
     transform="translate(0,-308.26772)">
    <path
       style="opacity:1;fill:#eeeeee;fill-opacity:0.90196079;fill-rule:nonzero;stroke:none;stroke-width:14.41399956;stroke-linecap:round;stroke-linejoin:bevel;stroke-miterlimit:4;stroke-dasharray:none;stroke-opacity:0"
       d="M -275.11328 -111.24023 L -275.11328 821.34375 L 1277.7227 821.34375 L 1277.7227 -111.24023 L -275.11328 -111.24023 z M 563.92773 309.68164 C 568.6944 309.68164 573.06997 310.15799 577.05664 311.11133 C 581.04331 312.06466 584.90029 313.53792 588.62695 315.53125 L 584.4668 328.40039 C 578.31346 325.10706 571.8999 323.46094 565.22656 323.46094 C 556.47323 323.46094 549.8868 326.23458 545.4668 331.78125 C 541.0468 337.32792 538.83594 345.08411 538.83594 355.05078 C 538.83594 365.01745 541.0468 372.77365 545.4668 378.32031 C 549.97346 383.86698 556.5599 386.64062 565.22656 386.64062 C 567.82656 386.64062 570.9037 386.20846 574.45703 385.3418 C 578.09703 384.47513 581.69276 383.08831 585.24609 381.18164 L 589.14648 394.18164 C 585.67982 396.17497 581.7806 397.73466 577.44727 398.86133 C 573.2006 399.90133 568.6944 400.42188 563.92773 400.42188 C 557.16773 400.42188 551.14409 399.29435 545.85742 397.04102 C 540.65742 394.70102 536.2799 391.49521 532.72656 387.42188 C 529.17323 383.34854 526.48602 378.53885 524.66602 372.99219 C 522.84602 367.44552 521.9375 361.46411 521.9375 355.05078 C 521.9375 348.63745 522.84602 342.65799 524.66602 337.11133 C 526.48602 331.56466 529.17323 326.75497 532.72656 322.68164 C 536.2799 318.60831 540.65742 315.44474 545.85742 313.19141 C 551.14409 310.85141 557.16773 309.68164 563.92773 309.68164 z M 701.16406 309.68164 C 706.10406 309.68164 710.61026 310.15799 714.68359 311.11133 C 718.84359 312.06466 722.78701 313.49372 726.51367 315.40039 L 722.22461 328.40039 C 718.93128 326.92706 715.50841 325.80148 711.95508 325.02148 C 708.40174 324.24148 705.10755 323.85156 702.07422 323.85156 C 696.87422 323.85156 693.01724 324.76203 690.50391 326.58203 C 687.99057 328.40203 686.73437 330.69737 686.73438 333.4707 C 686.73438 335.46404 687.21073 337.19854 688.16406 338.67188 C 689.1174 340.05854 690.37359 341.27055 691.93359 342.31055 C 693.49359 343.35055 695.27034 344.26102 697.26367 345.04102 C 699.25701 345.82102 701.295 346.55862 703.375 347.25195 C 706.495 348.29195 709.65661 349.50396 712.86328 350.89062 C 716.06995 352.19062 718.97422 353.88094 721.57422 355.96094 C 724.17422 358.04094 726.29669 360.59753 727.94336 363.63086 C 729.59003 366.57753 730.41406 370.21745 730.41406 374.55078 C 730.41406 378.97078 729.54779 382.78552 727.81445 385.99219 C 726.16779 389.19885 723.87049 391.88411 720.92383 394.05078 C 718.06383 396.21745 714.64096 397.82133 710.6543 398.86133 C 706.66763 399.90133 702.3343 400.42188 697.6543 400.42188 C 691.84763 400.42188 686.64802 399.85714 682.05469 398.73047 C 677.46135 397.51714 673.34508 395.87102 669.70508 393.79102 L 673.99414 380.01172 C 677.11414 381.74505 680.62344 383.21831 684.52344 384.43164 C 688.5101 385.64497 692.45352 386.25195 696.35352 386.25195 C 701.29352 386.25195 705.45398 385.29729 708.83398 383.39062 C 712.21398 381.39729 713.9043 378.36435 713.9043 374.29102 C 713.9043 372.29768 713.38375 370.60737 712.34375 369.2207 C 711.39042 367.83404 710.04779 366.62203 708.31445 365.58203 C 706.66779 364.54203 704.76042 363.6738 702.59375 362.98047 C 700.51375 362.20047 698.34708 361.42063 696.09375 360.64062 C 693.40708 359.77396 690.54701 358.73482 687.51367 357.52148 C 684.48034 356.22148 681.66445 354.57536 679.06445 352.58203 C 676.55112 350.50203 674.42669 347.94544 672.69336 344.91211 C 671.04669 341.87878 670.22461 338.15047 670.22461 333.73047 C 670.22461 330.43714 670.7874 327.31776 671.91406 324.37109 C 673.1274 321.42443 674.99057 318.86784 677.50391 316.70117 C 680.01724 314.53451 683.225 312.84419 687.125 311.63086 C 691.025 310.33086 695.70406 309.68164 701.16406 309.68164 z M 272.19727 311.24219 L 299.49609 311.24219 C 314.05609 311.24219 325.15068 314.96854 332.77734 322.42188 C 340.49068 329.78854 344.34766 340.53544 344.34766 354.66211 C 344.34766 369.22211 340.49068 380.22831 332.77734 387.68164 C 325.15068 395.13497 314.05609 398.86133 299.49609 398.86133 L 272.19727 398.86133 L 272.19727 311.24219 z M 378.74805 311.24219 L 395.9082 311.24219 L 427.49805 398.86133 L 409.81836 398.86133 L 403.1875 379.23047 L 371.46875 379.23047 L 364.83789 398.86133 L 347.1582 398.86133 L 378.74805 311.24219 z M 437.49023 311.24219 L 455.68945 311.24219 L 484.28906 360.90039 C 486.10906 363.93372 487.71294 366.92443 489.09961 369.87109 C 490.57294 372.81776 491.82914 375.8949 492.86914 379.10156 L 493.25977 379.10156 C 492.56643 375.46156 492.00365 371.95031 491.57031 368.57031 C 491.22365 365.10365 491.04883 361.98427 491.04883 359.21094 L 491.04883 311.24219 L 507.94922 311.24219 L 507.94922 398.86133 L 491.04883 398.86133 L 461.15039 349.20117 C 459.33039 346.16784 457.68232 343.17714 456.20898 340.23047 C 454.82232 337.2838 453.61031 334.20862 452.57031 331.00195 L 452.17969 331.00195 C 452.87302 334.64195 453.39357 338.19544 453.74023 341.66211 C 454.17357 345.04211 454.39063 348.11729 454.39062 350.89062 L 454.39062 398.86133 L 437.49023 398.86133 L 437.49023 311.24219 z M 602.27539 311.24219 L 659.21484 311.24219 L 659.21484 325.54102 L 618.6543 325.54102 L 618.6543 346.99219 L 656.74414 346.99219 L 656.74414 361.29102 L 618.6543 361.29102 L 618.6543 384.56055 L 659.99414 384.56055 L 659.99414 398.86133 L 602.27539 398.86133 L 602.27539 311.24219 z M 289.09766 325.80078 L 289.09766 384.30078 L 299.49609 384.30078 C 303.82943 384.30078 307.7306 383.73799 311.19727 382.61133 C 314.66393 381.48466 317.56625 379.70792 319.90625 377.28125 C 322.33292 374.85458 324.19609 371.77745 325.49609 368.05078 C 326.79609 364.32411 327.44727 359.86211 327.44727 354.66211 C 327.44727 349.46211 326.79609 345.04039 325.49609 341.40039 C 324.19609 337.67372 322.33292 334.68497 319.90625 332.43164 C 317.56625 330.09164 314.66393 328.40133 311.19727 327.36133 C 307.7306 326.32133 303.82943 325.80078 299.49609 325.80078 L 289.09766 325.80078 z M 387.19727 329.70117 L 380.69727 352.06055 L 376.4082 365.19141 L 398.24805 365.19141 L 393.95703 352.06055 L 387.45703 329.70117 L 387.19727 329.70117 z "
       transform="translate(0,308.26772)"
       id="rect4136" />
  </g>
</svg>
