<svg xmlns="http://www.w3.org/2000/svg" xmlns:xlink="http://www.w3.org/1999/xlink" version="1.1" x="0px" y="0px" viewBox="0 0 100 100" enable-background="new 0 0 100 100" xml:space="preserve"><g><polygon points="20.405,26.57 18.952,16 17.075,26.589 6.516,28.283 17.107,29.873 18.799,40.415 20.378,29.887 30.931,28.437  "></polygon><polygon points="84.477,78.757 83.632,72.613 82.541,78.768 76.404,79.753 82.561,80.676 83.544,86.804 84.461,80.684    90.595,79.841  "></polygon></g><path d="M54.177,19.25c-7.109,0-13.665,2.368-18.927,6.354c-0.652,1.228-1.343,2.696-2.008,4.435  c-1.666,0.632-3.081,1.288-4.279,1.914c-2.298,3.097-4.035,6.633-5.07,10.458c1.562-0.323,3.721-0.709,6.508-1.082  c-0.345,2.438-0.57,5.107-0.626,8.02h-6.944c-0.017,0.425-0.032,0.85-0.032,1.279c0,3.284,0.506,6.451,1.442,9.425  c1.595,0.314,3.675,0.671,6.28,1.011c0.469,3.017,1.119,5.654,1.844,7.936c-2.534-1.086-4.355-2.171-5.516-2.957  c2.777,4.912,6.838,9,11.73,11.808c-0.796-1.159-1.934-3.04-3.063-5.692c2.205,0.708,4.75,1.345,7.64,1.818  c0.335,2.632,0.689,4.753,1.006,6.389c3.146,1.061,6.512,1.643,10.015,1.643c17.332,0,31.381-14.049,31.381-31.379  C85.558,33.299,71.509,19.25,54.177,19.25z M32.14,59.412c-0.334-2.496-0.537-5.239-0.554-8.24h10.271  c0.006,3.29,0.077,6.317,0.192,9.09C38.209,60.045,34.91,59.742,32.14,59.412z M42.177,38.418c-3.676,0.2-6.854,0.478-9.566,0.786  c0.558-2.975,1.292-5.54,2.078-7.713c2.297-0.824,5.035-1.586,8.23-2.144C42.63,31.938,42.369,34.955,42.177,38.418z M53.243,60.588  c-3.399-0.016-6.519-0.098-9.36-0.23c-0.123-2.797-0.196-5.86-0.203-9.186h9.563V60.588z M63.206,72.343  c-2.461,0.358-5.172,0.59-8.141,0.639v-10.57c3.249-0.01,6.244-0.082,8.98-0.2C63.836,66.139,63.535,69.507,63.206,72.343z   M71.497,45.586l-1.579,10.529l-1.692-10.543l-10.591-1.589l10.56-1.694l1.876-10.589l1.453,10.57l10.525,1.866L71.497,45.586z"></path></svg>