<?xml version="1.0" encoding="UTF-8" standalone="no"?>
<svg
   xmlns:dc="http://purl.org/dc/elements/1.1/"
   xmlns:cc="http://creativecommons.org/ns#"
   xmlns:rdf="http://www.w3.org/1999/02/22-rdf-syntax-ns#"
   xmlns:svg="http://www.w3.org/2000/svg"
   xmlns="http://www.w3.org/2000/svg"
   xmlns:sodipodi="http://sodipodi.sourceforge.net/DTD/sodipodi-0.dtd"
   xmlns:inkscape="http://www.inkscape.org/namespaces/inkscape"
   version="1.1"
   x="0px"
   y="0px"
   viewBox="-345 257 100 100"
   xml:space="preserve"
   id="svg2"
   inkscape:version="0.91 r13725"
   sodipodi:docname="handshake.svg"
   width="100"
   height="100"><metadata
     id="metadata40"><rdf:RDF><cc:Work
         rdf:about=""><dc:format>image/svg+xml</dc:format><dc:type
           rdf:resource="http://purl.org/dc/dcmitype/StillImage" /><dc:title></dc:title></cc:Work></rdf:RDF></metadata><defs
     id="defs38" /><sodipodi:namedview
     pagecolor="#ffffff"
     bordercolor="#666666"
     borderopacity="1"
     objecttolerance="10"
     gridtolerance="10"
     guidetolerance="10"
     inkscape:pageopacity="0"
     inkscape:pageshadow="2"
     inkscape:window-width="1276"
     inkscape:window-height="755"
     id="namedview36"
     showgrid="false"
     inkscape:zoom="4.078375"
     inkscape:cx="89.844301"
     inkscape:cy="62.5"
     inkscape:window-x="4"
     inkscape:window-y="1"
     inkscape:window-maximized="1"
     inkscape:current-layer="svg2" /><g
     id="g4"
     transform="translate(-0.01620734,0)"><path
       d="M -301.7,330.5"
       id="path6"
       inkscape:connector-curvature="0" /><path
       d="m -269,322.5 c -0.8,0.8 -1.9,1.2 -3,1.2 -0.8,0 -1.5,-0.2 -2.2,-0.6 0.3,1.3 -0.1,2.8 -1.1,3.8 -0.8,0.8 -1.9,1.2 -3,1.2 -1,0 -2,-0.3 -2.7,-1 0.2,1.3 -0.2,2.7 -1.2,3.7 -0.8,0.8 -1.9,1.2 -3,1.2 -0.7,0 -1.4,-0.2 -2.1,-0.5 0,0.5 -0.1,0.9 -0.3,1.4 -0.2,0.5 -0.5,1 -1,1.5 -0.1,0.1 -0.2,0.2 -0.3,0.2 0,0 0,0 -0.1,0 -0.7,0.6 -1.7,1 -2.7,1 -0.7,0 -1.4,-0.2 -2,-0.5 l -1.4,-1 3.3,-4.1 c 3,-3.7 1,-7.2 -1.4,-9.2 l 0,0 0,0 c -1.4,-1.1 -3.1,-1.5 -4.7,-1.2 0,-1.6 -0.6,-3.3 -2,-4.4 l 0,0 0,0 c -1.4,-1.1 -3.1,-1.5 -4.7,-1.2 0,-1.6 -0.6,-3.3 -2,-4.4 l 0,0 0,0 c -1.4,-1.1 -3.1,-1.5 -4.7,-1.2 0,-1.6 -0.6,-3.3 -2,-4.4 l 0,0 0,0 c -2.9,-2.6 -6.3,-3.5 -9.3,-0.3 l -4.8,5.9 c -0.1,0.1 -0.1,0.1 -0.2,0.2 l -0.2,-0.1 c -0.3,-0.2 -0.5,-0.4 -0.7,-0.6 -1.7,-1.4 -7.2,-5.2 -9,-6.6 -0.8,-0.6 -1,-1.4 -0.6,-2.3 1.6,-3.5 3.3,-6.9 4.9,-10.3 0.8,-1.8 1.7,-3.6 2.5,-5.5 0.3,-0.6 0.7,-1 1.1,-1.1 0.4,-0.1 0.9,0 1.4,0.3 1.3,0.9 4.1,2.8 6.9,4.2 1.9,0.9 3.7,1.5 5.1,1.6 0.7,0.1 1.9,0 3.1,-0.1 0.8,-0.1 1.7,-0.3 2.5,-0.6 0.1,0 0.3,-0.1 0.4,-0.1 0.4,-0.1 0.8,-0.2 1.2,-0.4 0.1,0 0.1,0 0.2,-0.1 0.1,0 0.2,-0.1 0.4,-0.1 1.7,-0.4 3.5,-0.8 5.2,-1.1 l -5.3,5.3 c -0.2,0.2 -0.3,0.4 -0.5,0.5 -0.2,0.2 -0.4,0.5 -0.5,0.6 l 0,0 c -0.6,0.8 -1,1.8 -1.2,2.8 l 0,0.1 c -0.3,2.1 0.3,4.4 1.7,6.4 1.5,2.1 3.7,3.5 5.9,3.8 0.7,0.1 1.4,0.2 2,0.2 2.9,0 5.6,-0.9 7.9,-2.7 1.1,-0.9 2.3,-1.9 3.5,-2.8 0,0 0,0 0.1,-0.1 0.3,-0.3 0.6,-0.5 0.9,-0.8 0,0 0.1,0 0.1,-0.1 0,0 0,0 0.1,-0.1 0.3,0 0.5,0 0.8,0.1 0.4,0.1 0.8,0.2 1.2,0.5 0.3,0.2 0.6,0.4 0.9,0.7 l 0.6,0.6 0.4,0.4 0.1,0.1 1.5,1.5 1,1 1.7,1.8 1.3,1.3 c 0.1,0.1 0.1,0.1 0.2,0.2 l 9.5,8.2 c 1.9,1.8 1.9,4.5 0.3,6.1 z"
       id="path8"
       inkscape:connector-curvature="0" /><g
       id="g10"><path
         d="m -252.5,297.4 c -1.7,1.4 -8.4,6.5 -10.1,8 -1.1,1 -2.9,2.4 -4,3.4 -0.2,0.2 -0.3,0.3 -0.5,0.4 l 0,0 c -0.1,0.1 -0.2,0.1 -0.3,0.2 -0.2,0.1 -0.3,0.1 -0.5,0.1 -0.2,0 -0.5,-0.1 -0.7,-0.2 l -2.4,-2.3 0,0 0,0 -5.6,-5.2 c -0.1,-0.1 -0.2,-0.2 -0.3,-0.3 -0.1,-0.1 -0.2,-0.2 -0.3,-0.3 l -2.6,-2.4 c -0.7,-0.7 -1.4,-1.4 -2.2,-2.1 -0.3,-0.2 -0.5,-0.5 -0.8,-0.7 l -0.1,-0.1 c -0.1,-0.1 -0.2,-0.2 -0.3,-0.3 0,0 0,0 -0.1,0 -0.7,-0.5 -1.5,-0.9 -2.3,-1.1 -0.4,-0.1 -0.9,-0.2 -1.4,-0.2 -0.1,0 -0.2,0 -0.2,0 -1.2,0 -2.3,0.4 -3.2,1 l 0,0 c -0.3,0.2 -0.6,0.5 -0.9,0.8 0,0 -0.1,0 -0.1,0.1 -0.3,0.3 -0.7,0.5 -1,0.8 -1.2,1 -2.4,1.9 -3.4,2.8 -0.1,0.1 -0.1,0.1 -0.2,0.1 -1.4,1 -2.9,1.5 -4.5,1.5 -0.4,0 -0.9,0 -1.3,-0.1 -1.7,-0.3 -3.6,-2.6 -3.3,-4.3 0,-0.2 0.2,-0.5 0.3,-0.7 0.1,-0.1 0.1,-0.1 0.2,-0.2 0.1,-0.1 0.2,-0.2 0.3,-0.3 l 0.4,-0.4 5,-5 c 0.1,-0.1 0.2,-0.2 0.3,-0.3 0.1,-0.1 0.2,-0.2 0.3,-0.3 l 5.4,-5.4 0,0 1.4,-1.4 0.2,-0.1 c 0.7,-0.6 1.5,-0.8 2.7,-0.8 1.6,0 3.4,0.7 5.2,1.3 1.2,0.4 2.4,0.8 3.6,1.1 1.5,0.4 3.1,0.6 4.7,0.6 0.3,0 0.6,0 0.9,0 3.6,-0.2 9.8,-4.8 11.8,-6.3 0.4,-0.3 0.8,-0.4 1.1,-0.4 0.3,0 0.5,0.1 0.8,0.3 0.1,0.1 0.1,0.1 0.2,0.2 0.2,0.2 0.3,0.4 0.5,0.7 0.9,1.8 1.8,3.6 2.7,5.4 1.8,3.4 3.6,6.8 5.3,10.2 0.3,0.8 0.1,1.6 -0.7,2.2 z"
         id="path12"
         inkscape:connector-curvature="0" /></g><g
       id="g14"><g
         id="g16"><path
           d="m -315.5,311.8 -4.8,5.8 -0.1,0.1 c -1.1,1.3 -3,1.5 -4.3,0.4 -0.1,-0.1 -0.2,-0.2 -0.3,-0.2 -0.2,-0.2 -0.4,-0.5 -0.6,-0.8 0,-0.1 -0.1,-0.2 -0.1,-0.3 0,-0.2 -0.1,-0.3 -0.1,-0.5 0,-0.1 0,-0.2 0,-0.2 0,-0.1 0,-0.1 0,-0.2 l 0,-0.1 c 0,0 0,-0.1 0,-0.2 0,-0.1 0,-0.2 0,-0.3 0,-0.2 0.1,-0.4 0.1,-0.5 0.1,-0.2 0.2,-0.4 0.3,-0.6 0,-0.1 0.1,-0.1 0.1,-0.2 0,0 0,-0.1 0.1,-0.1 l 4.8,-5.9 c 1.1,-1.3 3,-1.5 4.3,-0.4 l 0,0 c 0.1,0.1 0.2,0.2 0.3,0.2 0.1,0 0.1,0.1 0.1,0.1 0.1,0.1 0.1,0.1 0.1,0.2 0.1,0.1 0.1,0.2 0.2,0.3 0,0.1 0.1,0.1 0.1,0.2 0.1,0.1 0.1,0.2 0.1,0.3 0,0.1 0.1,0.2 0.1,0.3 0.4,0.9 0.2,1.8 -0.4,2.6 z"
           id="path18"
           inkscape:connector-curvature="0" /></g><g
         id="g20"><path
           d="m -308.8,317.4 -4.5,5.4 -0.4,0.4 c -1.1,1.3 -3,1.5 -4.3,0.4 l 0,0 c -0.1,-0.1 -0.2,-0.2 -0.3,-0.2 -0.2,-0.2 -0.3,-0.3 -0.4,-0.5 -0.1,-0.2 -0.2,-0.4 -0.3,-0.6 l 0,0 c 0,-0.1 0,-0.2 -0.1,-0.2 0,-0.1 0,-0.2 -0.1,-0.2 0,-0.1 0,-0.2 0,-0.2 0,-0.1 0,-0.2 0,-0.3 0,-0.1 0,-0.2 0,-0.2 l 0,0 c 0,-0.1 0,-0.1 0,-0.2 0,-0.2 0.1,-0.3 0.1,-0.5 l 0,-0.1 c 0.1,-0.3 0.3,-0.6 0.5,-0.9 l 0.2,-0.2 4.6,-5.6 c 1.1,-1.3 3,-1.5 4.3,-0.4 l 0,0 c 0.1,0.1 0.2,0.2 0.2,0.2 l 0,0 c 0.1,0.1 0.1,0.1 0.1,0.2 0.1,0.1 0.1,0.1 0.2,0.2 0.1,0.1 0.1,0.2 0.2,0.3 0.1,0.1 0.1,0.3 0.2,0.5 0,0.1 0.1,0.2 0.1,0.3 0.5,0.7 0.3,1.7 -0.3,2.4 z"
           id="path22"
           inkscape:connector-curvature="0" /></g><g
         id="g24"><path
           d="m -301.4,321.2 c 0,0.1 0,0.2 0,0.3 0,0.1 0,0.2 0,0.3 l 0,0 0,0 0,0 c 0,0.1 -0.1,0.2 -0.1,0.4 0,0.1 -0.1,0.2 -0.1,0.2 -0.1,0.1 -0.1,0.2 -0.2,0.4 -0.1,0.1 -0.2,0.2 -0.2,0.3 l -4.2,5.1 -0.6,0.8 c -1.1,1.3 -3,1.5 -4.3,0.4 l 0,0 c -0.1,-0.1 -0.2,-0.2 -0.3,-0.2 -0.3,-0.3 -0.5,-0.7 -0.7,-1.1 0,-0.1 -0.1,-0.2 -0.1,-0.3 -0.2,-0.9 0,-1.8 0.6,-2.6 l 0.5,-0.6 4.4,-5.3 c 1.1,-1.3 3,-1.5 4.3,-0.4 l 0,0 c 0.1,0.1 0.2,0.2 0.3,0.2 0.1,0.1 0.1,0.2 0.2,0.2 0.1,0.1 0.1,0.2 0.2,0.3 0.1,0.2 0.2,0.4 0.3,0.6 l 0,0 c 0,0.1 0.1,0.2 0.1,0.2 0,0.1 0,0.2 0,0.2 -0.1,0.2 -0.1,0.4 -0.1,0.6 z"
           id="path26"
           inkscape:connector-curvature="0" /></g><g
         id="g28"><path
           d="m -294.7,326.7 0,0 c 0,0.1 0,0.2 0,0.3 0,0.1 0,0.2 0,0.3 l 0,0 0,0 0,0 c 0,0.1 -0.1,0.2 -0.1,0.4 0,0.1 -0.1,0.2 -0.1,0.2 -0.1,0.1 -0.1,0.2 -0.2,0.3 -0.1,0.1 -0.2,0.2 -0.2,0.3 l -3.8,4.7 -1,1.2 c -1.1,1.3 -3,1.5 -4.3,0.4 l 0,0 c -0.1,-0.1 -0.2,-0.2 -0.3,-0.2 -0.1,0 -0.1,-0.1 -0.1,-0.1 0,-0.1 -0.1,-0.1 -0.1,-0.2 -0.1,-0.1 -0.1,-0.2 -0.2,-0.3 0,-0.1 -0.1,-0.1 -0.1,-0.2 -0.1,-0.1 -0.1,-0.2 -0.1,-0.3 0,-0.1 -0.1,-0.2 -0.1,-0.3 -0.2,-0.9 0,-1.8 0.6,-2.6 l 0.8,-0.9 4.1,-5 c 1.1,-1.3 3,-1.5 4.3,-0.4 l 0,0 c 0.1,0.1 0.2,0.2 0.3,0.2 0.1,0.1 0.2,0.2 0.2,0.3 0.1,0.1 0.1,0.1 0.1,0.2 0,0.1 0.1,0.1 0.1,0.2 0,0 0,0 0,0.1 l 0,0 0,0 c 0,0.1 0.1,0.1 0.1,0.2 0,0.1 0.1,0.1 0.1,0.2 l 0,0 c 0,0.1 0.1,0.2 0.1,0.2 0,0.1 0,0.2 0,0.2 -0.1,0.3 -0.1,0.5 -0.1,0.6 z"
           id="path30"
           inkscape:connector-curvature="0" /></g></g></g></svg>