<?xml version="1.0" encoding="UTF-8" standalone="no"?>
<svg
   xmlns:dc="http://purl.org/dc/elements/1.1/"
   xmlns:cc="http://creativecommons.org/ns#"
   xmlns:rdf="http://www.w3.org/1999/02/22-rdf-syntax-ns#"
   xmlns:svg="http://www.w3.org/2000/svg"
   xmlns="http://www.w3.org/2000/svg"
   xmlns:sodipodi="http://sodipodi.sourceforge.net/DTD/sodipodi-0.dtd"
   xmlns:inkscape="http://www.inkscape.org/namespaces/inkscape"
   version="1.1"
   x="0px"
   y="0px"
   viewBox="0 0 100 125"
   id="svg4216"
   inkscape:version="0.91 r13725"
   sodipodi:docname="mic.svg">
  <metadata
     id="metadata4230">
    <rdf:RDF>
      <cc:Work
         rdf:about="">
        <dc:format>image/svg+xml</dc:format>
        <dc:type
           rdf:resource="http://purl.org/dc/dcmitype/StillImage" />
      </cc:Work>
    </rdf:RDF>
  </metadata>
  <defs
     id="defs4228" />
  <sodipodi:namedview
     pagecolor="#ffffff"
     bordercolor="#666666"
     borderopacity="1"
     objecttolerance="10"
     gridtolerance="10"
     guidetolerance="10"
     inkscape:pageopacity="0"
     inkscape:pageshadow="2"
     inkscape:window-width="866"
     inkscape:window-height="458"
     id="namedview4226"
     showgrid="false"
     inkscape:zoom="2.05025"
     inkscape:cx="-23.649555"
     inkscape:cy="62.5"
     inkscape:window-x="20"
     inkscape:window-y="42"
     inkscape:window-maximized="0"
     inkscape:current-layer="svg4216" />
  <g
     transform="translate(4.4095255,-938.158)"
     id="g4218">
    <path
       style="fill:#000000"
       d="m 45.590466,960.658 c -7.363655,0 -13.333328,6.00001 -13.333328,13.33328 l 0,3.33341 6.666673,0 0,3.33324 -6.666673,0 0,3.33341 6.666673,0 0,3.33342 -6.666673,0 0,3.33324 6.666673,0 0,3.33341 -6.666673,0 0,6.66669 c 0,7.3332 5.969673,13.3333 13.333328,13.3333 7.363338,0 13.333345,-6.0001 13.333345,-13.3333 l 0,-6.66669 -6.666673,0 0,-3.33341 6.666673,0 0,-3.33324 -6.666673,0 0,-3.33342 6.666673,0 0,-3.33341 -6.666673,0 0,-3.33324 6.666673,0 0,-3.33341 c 0,-7.33327 -5.970007,-13.33328 -13.333345,-13.33328 z m -23.333344,33.33341 c -1.840998,0 -3.333328,1.33323 -3.333328,3.33325 l 0,3.33344 c 0,13.3333 10.185343,24.6874 23.333344,26.3541 l 0,6.9791 -20.000016,0 c -1.840998,0 -3.333328,1.3334 -3.333328,3.3335 0,1.6666 1.49233,3.3332 3.333328,3.3332 l 46.666689,0 c 1.840012,0 3.333344,-1.6666 3.333344,-3.3332 0,-2.0001 -1.493332,-3.3335 -3.333344,-3.3335 l -20,0 0,-6.9791 c 13.146665,-1.6667 23.333344,-13.0208 23.333344,-26.3541 l 0,-3.33344 c 0,-2.00002 -1.493332,-3.33325 -3.333344,-3.33325 -1.839996,0 -3.333328,1.33323 -3.333328,3.33325 l 0,3.33344 c 0,10.9999 -8.953332,19.9999 -20.000017,19.9999 -11.045666,0 -20,-9 -20,-19.9999 l 0,-3.33344 c 0,-2.00002 -1.49233,-3.33325 -3.333344,-3.33325 z"
       id="path4220"
       inkscape:connector-curvature="0" />
  </g>
</svg>
