<?xml version="1.0" encoding="UTF-8" standalone="no"?>
<!-- Created with Inkscape (http://www.inkscape.org/) -->

<svg
   xmlns:dc="http://purl.org/dc/elements/1.1/"
   xmlns:cc="http://creativecommons.org/ns#"
   xmlns:rdf="http://www.w3.org/1999/02/22-rdf-syntax-ns#"
   xmlns:svg="http://www.w3.org/2000/svg"
   xmlns="http://www.w3.org/2000/svg"
   xmlns:sodipodi="http://sodipodi.sourceforge.net/DTD/sodipodi-0.dtd"
   xmlns:inkscape="http://www.inkscape.org/namespaces/inkscape"
   width="297mm"
   height="210mm"
   viewBox="0 0 1052.3622 744.09448"
   id="svg2"
   version="1.1"
   inkscape:version="0.91 r13725"
   sodipodi:docname="parties.svg">
  <defs
     id="defs4" />
  <sodipodi:namedview
     id="base"
     pagecolor="#ffffff"
     bordercolor="#666666"
     borderopacity="1.0"
     inkscape:pageopacity="0.0"
     inkscape:pageshadow="2"
     inkscape:zoom="0.37802734"
     inkscape:cx="505.56683"
     inkscape:cy="473.28619"
     inkscape:document-units="px"
     inkscape:current-layer="layer1"
     showgrid="false"
     inkscape:window-width="1276"
     inkscape:window-height="755"
     inkscape:window-x="4"
     inkscape:window-y="1"
     inkscape:window-maximized="1"
     objecttolerance="20" />
  <metadata
     id="metadata7">
    <rdf:RDF>
      <cc:Work
         rdf:about="">
        <dc:format>image/svg+xml</dc:format>
        <dc:type
           rdf:resource="http://purl.org/dc/dcmitype/StillImage" />
        <dc:title></dc:title>
      </cc:Work>
    </rdf:RDF>
  </metadata>
  <g
     inkscape:label="Layer 1"
     inkscape:groupmode="layer"
     id="layer1"
     transform="translate(0,-308.26772)">
    <path
       style="opacity:1;fill:#eeeeee;fill-opacity:0.90196079;fill-rule:nonzero;stroke:none;stroke-width:14.41399956;stroke-linecap:round;stroke-linejoin:bevel;stroke-miterlimit:4;stroke-dasharray:none;stroke-opacity:0"
       d="M -275.11328 -111.24023 L -275.11328 821.34375 L 1277.7227 821.34375 L 1277.7227 -111.24023 L -275.11328 -111.24023 z M 701.29102 309.68164 C 706.23102 309.68164 710.73721 310.15799 714.81055 311.11133 C 718.97055 312.06466 722.91396 313.49372 726.64062 315.40039 L 722.35156 328.40039 C 719.05823 326.92706 715.63536 325.80148 712.08203 325.02148 C 708.5287 324.24148 705.23451 323.85156 702.20117 323.85156 C 697.00117 323.85156 693.14419 324.76203 690.63086 326.58203 C 688.11753 328.40203 686.86133 330.69737 686.86133 333.4707 C 686.86133 335.46404 687.33768 337.19854 688.29102 338.67188 C 689.24435 340.05854 690.50055 341.27055 692.06055 342.31055 C 693.62055 343.35055 695.39729 344.26102 697.39062 345.04102 C 699.38396 345.82102 701.42195 346.55862 703.50195 347.25195 C 706.62195 348.29195 709.78357 349.50396 712.99023 350.89062 C 716.1969 352.19062 719.10117 353.88094 721.70117 355.96094 C 724.30117 358.04094 726.42365 360.59753 728.07031 363.63086 C 729.71698 366.57753 730.54102 370.21745 730.54102 374.55078 C 730.54102 378.97078 729.67474 382.78552 727.94141 385.99219 C 726.29474 389.19885 723.99745 391.88411 721.05078 394.05078 C 718.19078 396.21745 714.76792 397.82133 710.78125 398.86133 C 706.79458 399.90133 702.46125 400.42188 697.78125 400.42188 C 691.97458 400.42188 686.77497 399.85714 682.18164 398.73047 C 677.58831 397.51714 673.47203 395.87102 669.83203 393.79102 L 674.12109 380.01172 C 677.24109 381.74505 680.75039 383.21831 684.65039 384.43164 C 688.63706 385.64497 692.58047 386.25195 696.48047 386.25195 C 701.42047 386.25195 705.58094 385.29729 708.96094 383.39062 C 712.34094 381.39729 714.03125 378.36435 714.03125 374.29102 C 714.03125 372.29768 713.5107 370.60737 712.4707 369.2207 C 711.51737 367.83404 710.17474 366.62203 708.44141 365.58203 C 706.79474 364.54203 704.88737 363.6738 702.7207 362.98047 C 700.6407 362.20047 698.47404 361.42063 696.2207 360.64062 C 693.53404 359.77396 690.67396 358.73482 687.64062 357.52148 C 684.60729 356.22148 681.79141 354.57536 679.19141 352.58203 C 676.67807 350.50203 674.55365 347.94544 672.82031 344.91211 C 671.17365 341.87878 670.35156 338.15047 670.35156 333.73047 C 670.35156 330.43714 670.91435 327.31776 672.04102 324.37109 C 673.25435 321.42443 675.11753 318.86784 677.63086 316.70117 C 680.14419 314.53451 683.35195 312.84419 687.25195 311.63086 C 691.15195 310.33086 695.83102 309.68164 701.29102 309.68164 z M 272.07031 311.24219 L 303.66016 311.24219 C 308.42682 311.24219 312.71596 311.97784 316.5293 313.45117 C 320.34263 314.92451 323.55039 316.91831 326.15039 319.43164 C 328.75039 321.94497 330.74224 324.93372 332.12891 328.40039 C 333.51557 331.86706 334.20898 335.55117 334.20898 339.45117 C 334.20898 343.52451 333.47333 347.33729 332 350.89062 C 330.52667 354.35729 328.44643 357.39219 325.75977 359.99219 C 323.0731 362.59219 319.77891 364.62823 315.87891 366.10156 C 311.97891 367.5749 307.64557 368.31055 302.87891 368.31055 L 288.96875 368.31055 L 288.96875 398.86133 L 272.07031 398.86133 L 272.07031 311.24219 z M 363.89453 311.24219 L 381.05469 311.24219 L 412.64453 398.86133 L 394.96484 398.86133 L 388.33398 379.23047 L 356.61523 379.23047 L 349.98438 398.86133 L 332.30469 398.86133 L 363.89453 311.24219 z M 422.63672 311.24219 L 455.52539 311.24219 C 460.55206 311.24219 465.01602 311.97784 468.91602 313.45117 C 472.81602 314.83784 476.11021 316.74521 478.79688 319.17188 C 481.48354 321.59854 483.51958 324.50086 484.90625 327.88086 C 486.29292 331.17419 486.98633 334.68544 486.98633 338.41211 C 486.98633 344.47878 485.25182 349.63419 481.78516 353.88086 C 478.40516 358.12753 474.02958 361.20466 468.65625 363.11133 L 489.32617 398.86133 L 471.25586 398.86133 L 452.40625 366.10156 L 439.53516 366.10156 L 439.53516 398.86133 L 422.63672 398.86133 L 422.63672 311.24219 z M 490.73047 311.24219 L 557.81055 311.24219 L 557.81055 325.80078 L 532.71875 325.54102 L 532.71875 398.86133 L 515.82031 398.86133 L 515.82031 325.54102 L 490.73047 325.80078 L 490.73047 311.24219 z M 567.10938 311.24219 L 584.00781 311.24219 L 584.00781 398.86133 L 567.10938 398.86133 L 567.10938 311.24219 z M 602.40234 311.24219 L 659.3418 311.24219 L 659.3418 325.54102 L 618.78125 325.54102 L 618.78125 346.99219 L 656.87109 346.99219 L 656.87109 361.29102 L 618.78125 361.29102 L 618.78125 384.56055 L 660.12109 384.56055 L 660.12109 398.86133 L 602.40234 398.86133 L 602.40234 311.24219 z M 288.96875 325.80078 L 288.96875 353.75195 L 302.87891 353.75195 C 307.38557 353.75195 310.89682 352.4938 313.41016 349.98047 C 316.01016 347.38047 317.31055 343.87117 317.31055 339.45117 C 317.31055 335.29117 316.13883 331.99698 313.79883 329.57031 C 311.45883 327.05698 308.08016 325.80078 303.66016 325.80078 L 288.96875 325.80078 z M 439.53516 325.80078 L 439.53516 351.54102 L 455.65625 351.54102 C 460.16292 351.54102 463.67221 350.37125 466.18555 348.03125 C 468.78555 345.69125 470.08594 342.48544 470.08594 338.41211 C 470.08594 334.59878 468.87198 331.56388 466.44531 329.31055 C 464.10531 326.97055 460.50958 325.80078 455.65625 325.80078 L 439.53516 325.80078 z M 372.34375 329.70117 L 365.84375 352.06055 L 361.55469 365.19141 L 383.39453 365.19141 L 379.10352 352.06055 L 372.60352 329.70117 L 372.34375 329.70117 z "
       transform="translate(0,308.26772)"
       id="rect4136" />
  </g>
</svg>
