<?xml version="1.0" encoding="UTF-8" standalone="no"?>
<svg
   xmlns:dc="http://purl.org/dc/elements/1.1/"
   xmlns:cc="http://creativecommons.org/ns#"
   xmlns:rdf="http://www.w3.org/1999/02/22-rdf-syntax-ns#"
   xmlns:svg="http://www.w3.org/2000/svg"
   xmlns="http://www.w3.org/2000/svg"
   xmlns:sodipodi="http://sodipodi.sourceforge.net/DTD/sodipodi-0.dtd"
   xmlns:inkscape="http://www.inkscape.org/namespaces/inkscape"
   version="1.1"
   x="0px"
   y="0px"
   viewBox="0 0 64 80"
   enable-background="new 0 0 64 64"
   xml:space="preserve"
   id="svg2"
   inkscape:version="0.91 r13725"
   sodipodi:docname="speaker.svg"><metadata
     id="metadata24"><rdf:RDF><cc:Work
         rdf:about=""><dc:format>image/svg+xml</dc:format><dc:type
           rdf:resource="http://purl.org/dc/dcmitype/StillImage" /></cc:Work></rdf:RDF></metadata><defs
     id="defs22" /><sodipodi:namedview
     pagecolor="#ffffff"
     bordercolor="#666666"
     borderopacity="1"
     objecttolerance="10"
     gridtolerance="10"
     guidetolerance="10"
     inkscape:pageopacity="0"
     inkscape:pageshadow="2"
     inkscape:window-width="937"
     inkscape:window-height="569"
     id="namedview20"
     showgrid="false"
     inkscape:zoom="4.2291016"
     inkscape:cx="32"
     inkscape:cy="40"
     inkscape:window-x="0"
     inkscape:window-y="0"
     inkscape:window-maximized="0"
     inkscape:current-layer="svg2" /><g
     id="g4"
     transform="translate(0,8)"><circle
       cx="32"
       cy="41.035999"
       r="3.6530001"
       id="circle6" /><path
       d="m 32,27.188 c -7.637,0 -13.848,6.212 -13.848,13.848 0,7.636 6.212,13.847 13.848,13.847 7.634,0 13.847,-6.212 13.847,-13.848 0,-7.636 -6.212,-13.847 -13.847,-13.847 z m 0,25.435 c -6.389,0 -11.588,-5.198 -11.588,-11.588 0,-6.389 5.199,-11.588 11.588,-11.588 6.388,0 11.587,5.199 11.587,11.588 10e-4,6.39 -5.198,11.588 -11.587,11.588 z"
       id="path8"
       inkscape:connector-curvature="0" /><circle
       cx="32"
       cy="11.636"
       r="2.0450001"
       id="circle10" /><path
       d="m 32,19.39 c 4.275,0 7.753,-3.478 7.753,-7.754 0,-4.274 -3.479,-7.753 -7.753,-7.753 -4.275,0 -7.754,3.479 -7.754,7.753 0.001,4.276 3.479,7.754 7.754,7.754 z M 32,5.147 c 3.578,0 6.488,2.911 6.488,6.488 0,3.579 -2.91,6.488 -6.488,6.488 -3.578,0 -6.488,-2.909 -6.488,-6.488 0,-3.576 2.91,-6.488 6.488,-6.488 z"
       id="path12"
       inkscape:connector-curvature="0" /><path
       d="m 52.898,0 -41.796,0 0,60.51 2.823,0 0,3.49 4.982,0 0,-3.49 26.189,0 0,3.49 4.98,0 0,-3.49 2.822,0 0,-60.51 z M 32,2.721 c 4.923,0 8.916,3.992 8.916,8.915 0,4.925 -3.992,8.916 -8.916,8.916 -4.924,0 -8.916,-3.991 -8.916,-8.916 0,-4.923 3.993,-8.915 8.916,-8.915 z m 0,53.849 c -8.578,0 -15.535,-6.955 -15.535,-15.535 0,-8.578 6.957,-15.534 15.535,-15.534 8.58,0 15.535,6.956 15.535,15.534 0,8.58 -6.955,15.535 -15.535,15.535 z"
       id="path14"
       inkscape:connector-curvature="0" /></g></svg>