<?xml version="1.0" encoding="UTF-8" standalone="no"?>
<!-- Created with Inkscape (http://www.inkscape.org/) -->

<svg
   xmlns:dc="http://purl.org/dc/elements/1.1/"
   xmlns:cc="http://creativecommons.org/ns#"
   xmlns:rdf="http://www.w3.org/1999/02/22-rdf-syntax-ns#"
   xmlns:svg="http://www.w3.org/2000/svg"
   xmlns="http://www.w3.org/2000/svg"
   xmlns:sodipodi="http://sodipodi.sourceforge.net/DTD/sodipodi-0.dtd"
   xmlns:inkscape="http://www.inkscape.org/namespaces/inkscape"
   width="297mm"
   height="210mm"
   viewBox="0 0 1052.3622 744.09448"
   id="svg2"
   version="1.1"
   inkscape:version="0.91 r13725"
   sodipodi:docname="special-events.svg">
  <defs
     id="defs4" />
  <sodipodi:namedview
     id="base"
     pagecolor="#ffffff"
     bordercolor="#666666"
     borderopacity="1.0"
     inkscape:pageopacity="0.0"
     inkscape:pageshadow="2"
     inkscape:zoom="0.28871103"
     inkscape:cx="1111.4074"
     inkscape:cy="235.20817"
     inkscape:document-units="px"
     inkscape:current-layer="layer1"
     showgrid="false"
     inkscape:window-width="1276"
     inkscape:window-height="755"
     inkscape:window-x="4"
     inkscape:window-y="1"
     inkscape:window-maximized="1"
     objecttolerance="20" />
  <metadata
     id="metadata7">
    <rdf:RDF>
      <cc:Work
         rdf:about="">
        <dc:format>image/svg+xml</dc:format>
        <dc:type
           rdf:resource="http://purl.org/dc/dcmitype/StillImage" />
        <dc:title></dc:title>
      </cc:Work>
    </rdf:RDF>
  </metadata>
  <g
     inkscape:label="Layer 1"
     inkscape:groupmode="layer"
     id="layer1"
     transform="translate(0,-308.26772)">
    <path
       style="opacity:1;fill:#222831;fill-opacity:0.90196078;fill-rule:nonzero;stroke:none;stroke-width:14.41399956;stroke-linecap:round;stroke-linejoin:bevel;stroke-miterlimit:4;stroke-dasharray:none;stroke-opacity:0"
       d="m -250.23686,214.02299 0,932.58391 1552.83596,0 0,-932.58391 -1552.83596,0 z m 442.61524,420.92187 c 4.76666,0 9.14419,0.47636 13.13086,1.42969 3.98666,0.95334 7.84364,2.42659 11.57031,4.41992 l -4.16016,12.86914 c -6.15333,-3.29333 -12.5669,-4.93945 -19.24023,-4.93945 -8.75334,0 -15.33977,2.77365 -19.75977,8.32031 -4.42,5.54667 -6.63086,13.30287 -6.63086,23.26954 0,9.96666 2.21086,17.72286 6.63086,23.26953 4.50667,5.54666 11.0931,8.32031 19.75977,8.32031 2.6,0 5.67713,-0.43216 9.23047,-1.29883 3.64,-0.86667 7.23573,-2.25349 10.78906,-4.16016 l 3.90039,13 c -3.46667,1.99334 -7.36589,3.55303 -11.69922,4.67969 -4.24667,1.04 -8.75482,1.56055 -13.52148,1.56055 -6.76,0 -12.7817,-1.12753 -18.06836,-3.38086 -5.2,-2.34 -9.57753,-5.54581 -13.13086,-9.61914 -3.55334,-4.07333 -6.24055,-8.88498 -8.06055,-14.43164 -1.82,-5.54667 -2.72851,-11.52612 -2.72852,-17.93945 0,-6.41334 0.90852,-12.39279 2.72852,-17.93946 1.82,-5.54666 4.50721,-10.35635 8.06055,-14.42969 3.55333,-4.07333 7.93086,-7.2369 13.13086,-9.49023 5.28666,-2.34 11.30836,-3.50977 18.06836,-3.50977 z m 402.67187,0 c 6.76,0 12.69721,1.16977 17.81055,3.50977 5.11333,2.25333 9.36023,5.4169 12.74023,9.49023 3.46667,4.07334 6.0655,8.88303 7.79883,14.42969 1.73333,5.54667 2.59961,11.52612 2.59961,17.93946 0,6.41333 -0.86628,12.39278 -2.59961,17.93945 -1.73333,5.54666 -4.33216,10.35831 -7.79883,14.43164 -3.38,4.07333 -7.6269,7.27914 -12.74023,9.61914 -5.11334,2.25333 -11.05055,3.38086 -17.81055,3.38086 -6.76,0 -12.69721,-1.12753 -17.81055,-3.38086 -5.11333,-2.34 -9.40247,-5.54581 -12.86914,-9.61914 -3.38,-4.07333 -5.93658,-8.88498 -7.66992,-14.43164 -1.73333,-5.54667 -2.59961,-11.52612 -2.59961,-17.93945 0,-6.41334 0.86628,-12.39279 2.59961,-17.93946 1.73334,-5.54666 4.28992,-10.35635 7.66992,-14.42969 3.46667,-4.07333 7.75581,-7.2369 12.86914,-9.49023 5.11334,-2.34 11.05055,-3.50977 17.81055,-3.50977 z m 277.67188,0 c 4.94,0 9.44619,0.47636 13.51953,1.42969 4.16,0.95334 8.10341,2.3824 11.83008,4.28906 l -4.28907,13 c -3.29333,-1.47333 -6.71815,-2.5989 -10.27148,-3.3789 -3.55333,-0.78 -6.84557,-1.16992 -9.87891,-1.16992 -5.2,0 -9.05698,0.91047 -11.57031,2.73046 -2.51333,1.82 -3.76953,4.11534 -3.76953,6.88868 0,1.99333 0.47635,3.72784 1.42969,5.20117 0.95333,1.38667 2.20953,2.59867 3.76953,3.63867 1.56,1.04 3.33674,1.95047 5.33008,2.73047 1.99333,0.78 4.02937,1.5176 6.10937,2.21094 3.12,1.04 6.28357,2.252 9.49024,3.63867 3.20666,1.3 6.11093,2.99031 8.71093,5.07031 2.6,2.08 4.72248,4.63659 6.36914,7.66992 1.64667,2.94667 2.47071,6.58659 2.47071,10.91993 0,4.42 -0.86628,8.23278 -2.59961,11.43945 -1.64667,3.20666 -3.94396,5.89388 -6.89063,8.06055 -2.86,2.16666 -6.28286,3.77054 -10.26953,4.81054 -3.98667,1.04 -8.32,1.56055 -13,1.56055 -5.80667,0 -11.00628,-0.56474 -15.59961,-1.69141 -4.59333,-1.21333 -8.71156,-2.85945 -12.35156,-4.93945 l 4.29101,-13.7793 c 3.12,1.73334 6.6293,3.20659 10.5293,4.41992 3.98667,1.21334 7.93008,1.82032 11.83008,1.82032 4.94,0 9.10047,-0.95466 12.48047,-2.86133 3.38,-1.99333 5.07031,-5.02628 5.07031,-9.09961 0,-1.99333 -0.52055,-3.68365 -1.56055,-5.07031 -0.95333,-1.38667 -2.29596,-2.59868 -4.02929,-3.63868 -1.64667,-1.03999 -3.55404,-1.90822 -5.72071,-2.60156 -2.08,-0.78 -4.24666,-1.55984 -6.5,-2.33984 -2.68666,-0.86667 -5.54674,-1.90581 -8.58007,-3.11914 -3.03334,-1.3 -5.84922,-2.94612 -8.44922,-4.93946 -2.51334,-2.07999 -4.63776,-4.63854 -6.3711,-7.67187 -1.64666,-3.03333 -2.46875,-6.75969 -2.46875,-11.17969 0,-3.29333 0.56279,-6.41271 1.68946,-9.35937 1.21333,-2.94667 3.07651,-5.50326 5.58984,-7.66992 2.51333,-2.16667 5.71914,-3.85698 9.61914,-5.07032 3.9,-1.3 8.58102,-1.94922 14.04102,-1.94922 z m -641.99414,1.5586 56.93945,0 0,14.30078 -40.56055,0 0,21.44922 38.08985,0 0,14.30078 -38.08985,0 0,23.26953 41.33985,0 0,14.30078 -57.71875,0 0,-87.62109 z m 72.10937,0 32.88867,0 c 5.02667,0 9.49063,0.7376 13.39063,2.21094 3.9,1.38666 7.19224,3.29403 9.8789,5.7207 2.68667,2.42667 4.72467,5.32898 6.11133,8.70898 1.38667,3.29334 2.08008,6.80263 2.08008,10.5293 0,6.06667 -1.73451,11.22404 -5.20117,15.4707 -3.38,4.24667 -7.75557,7.32381 -13.12891,9.23047 l 20.66992,35.75 -18.07031,0 -18.84961,-32.75976 -12.87109,0 0,32.75976 -16.89844,0 0,-87.62109 z m 78.20313,0 56.93945,0 0,14.30078 -40.56055,0 0,21.44922 38.08985,0 0,14.30078 -38.08985,0 0,23.26953 41.33985,0 0,14.30078 -57.71875,0 0,-87.62109 z m 72.10937,0 18.97852,0 17.67968,40.30078 c 1.73334,3.9 3.16435,7.71279 4.29102,11.43945 1.21333,3.72667 2.03737,7.19373 2.4707,10.40039 l 0.25977,0 c 0.43333,-3.20666 1.21318,-6.67372 2.33984,-10.40039 1.21334,-3.72666 2.68659,-7.53945 4.41992,-11.43945 l 17.67969,-40.30078 18.98047,0 0,87.62109 -16.38086,0 0,-42.90039 c 0,-1.64667 0.0442,-3.50984 0.13086,-5.58984 0.17333,-2.08 0.3462,-4.24667 0.51953,-6.5 l 0.7793,-6.75977 c 0.34666,-2.25333 0.69435,-4.37776 1.04101,-6.37109 l -0.39062,0 c -1.04,3.9 -2.12333,7.62831 -3.25,11.18164 -1.12667,3.46667 -2.55573,7.27945 -4.28906,11.43945 l -13.78125,32.10938 -15.85938,0 -13.7793,-32.10938 c -1.73333,-4.16 -3.16434,-7.97278 -4.29101,-11.43945 -1.12667,-3.55333 -2.21,-7.28164 -3.25,-11.18164 l -0.39063,0 c 0.34667,1.99333 0.65016,4.11776 0.91016,6.37109 0.34667,2.25334 0.60792,4.50643 0.78125,6.75977 0.26,2.25333 0.43286,4.42 0.51953,6.5 0.17333,2.08 0.25977,3.94317 0.25977,5.58984 l 0,42.90039 -16.37891,0 0,-87.62109 z m 196.52344,0 18.19922,0 28.59961,49.66015 c 1.82,3.03334 3.42388,6.02404 4.81054,8.97071 1.47334,2.94666 2.72953,6.0238 3.76953,9.23047 l 0.39063,0 c -0.69333,-3.64 -1.25612,-7.15125 -1.68945,-10.53125 -0.34667,-3.46667 -0.52149,-6.58605 -0.52149,-9.35938 l 0,-47.9707 16.90039,0 0,87.62109 -16.90039,0 -29.90039,-49.66015 c -1.82,-3.03334 -3.46612,-6.02404 -4.93945,-8.97071 -1.38667,-2.94666 -2.59867,-6.02185 -3.63867,-9.22851 l -0.39063,0 c 0.69333,3.64 1.21388,7.19153 1.56055,10.6582 0.43333,3.38 0.64844,6.45714 0.64844,9.23047 l 0,47.9707 -16.89844,0 0,-87.62109 z m 88.86719,0 16.89843,0 0,87.62109 -16.89843,0 0,-87.62109 z m 35.29296,0 56.93946,0 0,14.30078 -40.56055,0 0,21.44922 38.08984,0 0,14.30078 -38.08984,0 0,23.26953 41.33984,0 0,14.30078 -57.71875,0 0,-87.62109 z m -178.7832,12.2207 c -7.88667,0 -13.86612,2.77365 -17.93945,8.32031 -4.07334,5.54667 -6.11133,13.30287 -6.11133,23.26954 0,9.96666 2.03799,17.72286 6.11133,23.26953 4.07333,5.54666 10.05278,8.32031 17.93945,8.32031 7.88667,0 13.86612,-2.77365 17.93945,-8.32031 4.07334,-5.54667 6.11133,-13.30287 6.11133,-23.26953 0,-9.96667 -2.03799,-17.72287 -6.11133,-23.26954 -4.07333,-5.54666 -10.05278,-8.32031 -17.93945,-8.32031 z m -275.31445,2.33985 0,25.74023 16.12109,0 c 4.50667,0 8.01597,-1.16977 10.5293,-3.50977 2.6,-2.34 3.90039,-5.54776 3.90039,-9.62109 0,-3.81333 -1.21396,-6.84628 -3.64063,-9.09961 -2.34,-2.34 -5.93572,-3.50977 -10.78906,-3.50976 l -16.12109,0 z"
       id="rect4136"
       inkscape:connector-curvature="0" />
    <text
       xml:space="preserve"
       style="font-style:normal;font-weight:normal;font-size:40px;line-height:125%;font-family:sans-serif;letter-spacing:0px;word-spacing:0px;fill:#ffffff;fill-opacity:1;stroke:none;stroke-width:1px;stroke-linecap:butt;stroke-linejoin:miter;stroke-opacity:1"
       x="190.50191"
       y="889.56964"
       id="text4138"
       sodipodi:linespacing="125%"><tspan
         sodipodi:role="line"
         id="tspan4140"
         x="190.50191"
         y="889.56964"
         style="font-size:177.5px" /></text>
    <text
       xml:space="preserve"
       style="font-style:normal;font-weight:normal;font-size:130px;line-height:125%;font-family:sans-serif;letter-spacing:0px;word-spacing:0px;fill:#000000;fill-opacity:1;stroke:none;stroke-width:1px;stroke-linecap:butt;stroke-linejoin:miter;stroke-opacity:1"
       x="-678.87952"
       y="293.8183"
       id="text4176"
       sodipodi:linespacing="125%"><tspan
         sodipodi:role="line"
         id="tspan4178"
         x="-678.87952"
         y="293.8183" /></text>
  </g>
</svg>
