<?xml version="1.0" encoding="UTF-8" standalone="no"?>
<!-- Created with Inkscape (http://www.inkscape.org/) -->

<svg
   xmlns:dc="http://purl.org/dc/elements/1.1/"
   xmlns:cc="http://creativecommons.org/ns#"
   xmlns:rdf="http://www.w3.org/1999/02/22-rdf-syntax-ns#"
   xmlns:svg="http://www.w3.org/2000/svg"
   xmlns="http://www.w3.org/2000/svg"
   xmlns:sodipodi="http://sodipodi.sourceforge.net/DTD/sodipodi-0.dtd"
   xmlns:inkscape="http://www.inkscape.org/namespaces/inkscape"
   width="297mm"
   height="210mm"
   viewBox="0 0 1052.3622 744.09448"
   id="svg2"
   version="1.1"
   inkscape:version="0.91 r13725"
   sodipodi:docname="special-events.svg">
  <defs
     id="defs4" />
  <sodipodi:namedview
     id="base"
     pagecolor="#ffffff"
     bordercolor="#666666"
     borderopacity="1.0"
     inkscape:pageopacity="0.0"
     inkscape:pageshadow="2"
     inkscape:zoom="0.37802734"
     inkscape:cx="505.56683"
     inkscape:cy="473.28619"
     inkscape:document-units="px"
     inkscape:current-layer="layer1"
     showgrid="false"
     inkscape:window-width="1276"
     inkscape:window-height="755"
     inkscape:window-x="4"
     inkscape:window-y="1"
     inkscape:window-maximized="1"
     objecttolerance="20" />
  <metadata
     id="metadata7">
    <rdf:RDF>
      <cc:Work
         rdf:about="">
        <dc:format>image/svg+xml</dc:format>
        <dc:type
           rdf:resource="http://purl.org/dc/dcmitype/StillImage" />
        <dc:title></dc:title>
      </cc:Work>
    </rdf:RDF>
  </metadata>
  <g
     inkscape:label="Layer 1"
     inkscape:groupmode="layer"
     id="layer1"
     transform="translate(0,-308.26772)">
    <path
       style="opacity:1;fill:#222831;fill-opacity:0.90196079;fill-rule:nonzero;stroke:none;stroke-width:14.41399956;stroke-linecap:round;stroke-linejoin:bevel;stroke-miterlimit:4;stroke-dasharray:none;stroke-opacity:0"
       d="M -275.11328 -111.24023 L -275.11328 821.34375 L 1277.7227 821.34375 L 1277.7227 -111.24023 L -275.11328 -111.24023 z M 295.66797 228.43164 C 300.60797 228.43164 305.11612 228.90799 309.18945 229.86133 C 313.34945 230.81466 317.29286 232.24372 321.01953 234.15039 L 316.72852 247.15039 C 313.43518 245.67706 310.01232 244.55148 306.45898 243.77148 C 302.90565 242.99148 299.61146 242.60156 296.57812 242.60156 C 291.37812 242.60156 287.52115 243.51203 285.00781 245.33203 C 282.49448 247.15203 281.23828 249.44737 281.23828 252.2207 C 281.23828 254.21404 281.71464 255.94854 282.66797 257.42188 C 283.6213 258.80854 284.87945 260.02055 286.43945 261.06055 C 287.99945 262.10055 289.7762 263.01102 291.76953 263.79102 C 293.76286 264.57102 295.79891 265.30862 297.87891 266.00195 C 300.99891 267.04195 304.16247 268.25396 307.36914 269.64062 C 310.57581 270.94063 313.47812 272.63094 316.07812 274.71094 C 318.67812 276.79094 320.80255 279.34753 322.44922 282.38086 C 324.09589 285.32753 324.91797 288.96745 324.91797 293.30078 C 324.91797 297.72078 324.05169 301.53552 322.31836 304.74219 C 320.67169 307.94885 318.37635 310.63411 315.42969 312.80078 C 312.56969 314.96745 309.14487 316.57133 305.1582 317.61133 C 301.17154 318.65133 296.8382 319.17188 292.1582 319.17188 C 286.35154 319.17188 281.15193 318.60714 276.55859 317.48047 C 271.96526 316.26714 267.84898 314.62102 264.20898 312.54102 L 268.49805 298.76172 C 271.61805 300.49505 275.1293 301.96831 279.0293 303.18164 C 283.01596 304.39497 286.95937 305.00195 290.85938 305.00195 C 295.79938 305.00195 299.95789 304.04729 303.33789 302.14062 C 306.71789 300.14729 308.4082 297.11435 308.4082 293.04102 C 308.4082 291.04768 307.88961 289.35737 306.84961 287.9707 C 305.89628 286.58404 304.55169 285.37203 302.81836 284.33203 C 301.17169 283.29203 299.26628 282.4238 297.09961 281.73047 C 295.01961 280.95047 292.85294 280.17063 290.59961 279.39062 C 287.91294 278.52396 285.05286 277.48482 282.01953 276.27148 C 278.9862 274.97148 276.16836 273.32536 273.56836 271.33203 C 271.05503 269.25203 268.93255 266.69544 267.19922 263.66211 C 265.55255 260.62878 264.72852 256.90047 264.72852 252.48047 C 264.72852 249.18714 265.2913 246.06776 266.41797 243.12109 C 267.6313 240.17443 269.49448 237.61784 272.00781 235.45117 C 274.52115 233.28451 277.72891 231.59419 281.62891 230.38086 C 285.52891 229.08086 290.20797 228.43164 295.66797 228.43164 z M 524.31055 228.43164 C 529.07721 228.43164 533.45279 228.90799 537.43945 229.86133 C 541.42612 230.81466 545.2831 232.28792 549.00977 234.28125 L 544.84961 247.15039 C 538.69628 243.85706 532.28271 242.21094 525.60938 242.21094 C 516.85604 242.21094 510.26961 244.98458 505.84961 250.53125 C 501.42961 256.07792 499.2207 263.83411 499.2207 273.80078 C 499.2207 283.76745 501.42961 291.52365 505.84961 297.07031 C 510.35628 302.61698 516.94271 305.39062 525.60938 305.39062 C 528.20937 305.39062 531.28651 304.95846 534.83984 304.0918 C 538.47984 303.22513 542.07753 301.83831 545.63086 299.93164 L 549.53125 312.93164 C 546.06458 314.92497 542.16341 316.48466 537.83008 317.61133 C 533.58341 318.65133 529.07721 319.17188 524.31055 319.17188 C 517.55055 319.17188 511.5269 318.04435 506.24023 315.79102 C 501.04023 313.45102 496.66271 310.24521 493.10938 306.17188 C 489.55604 302.09854 486.87078 297.28885 485.05078 291.74219 C 483.23078 286.19552 482.32031 280.21411 482.32031 273.80078 C 482.32031 267.38745 483.23078 261.40799 485.05078 255.86133 C 486.87078 250.31466 489.55604 245.50497 493.10938 241.43164 C 496.66271 237.35831 501.04023 234.19474 506.24023 231.94141 C 511.5269 229.60141 517.55055 228.43164 524.31055 228.43164 z M 696.86328 229.86133 L 696.86328 303.05078 L 735.60352 303.05078 L 735.60352 317.61133 L 679.96289 317.61133 L 679.96289 229.99219 L 696.86328 229.86133 z M 338.9668 229.99219 L 370.55664 229.99219 C 375.32331 229.99219 379.6144 230.72784 383.42773 232.20117 C 387.24107 233.67451 390.44688 235.66831 393.04688 238.18164 C 395.64688 240.69497 397.64068 243.68372 399.02734 247.15039 C 400.41401 250.61706 401.10742 254.30117 401.10742 258.20117 C 401.10742 262.27451 400.36982 266.08729 398.89648 269.64062 C 397.42315 273.10729 395.34292 276.14219 392.65625 278.74219 C 389.96958 281.34219 386.67734 283.37823 382.77734 284.85156 C 378.87734 286.3249 374.54401 287.06055 369.77734 287.06055 L 355.86719 287.06055 L 355.86719 317.61133 L 338.9668 317.61133 L 338.9668 229.99219 z M 414.63086 229.99219 L 471.57031 229.99219 L 471.57031 244.29102 L 431.01172 244.29102 L 431.01172 265.74219 L 469.10156 265.74219 L 469.10156 280.04102 L 431.01172 280.04102 L 431.01172 303.31055 L 472.35156 303.31055 L 472.35156 317.61133 L 414.63086 317.61133 L 414.63086 229.99219 z M 562.6582 229.99219 L 579.55859 229.99219 L 579.55859 317.61133 L 562.6582 317.61133 L 562.6582 229.99219 z M 621.2207 229.99219 L 638.38086 229.99219 L 669.9707 317.61133 L 652.29102 317.61133 L 645.66211 297.98047 L 613.94141 297.98047 L 607.31055 317.61133 L 589.63086 317.61133 L 621.2207 229.99219 z M 355.86719 244.55078 L 355.86719 272.50195 L 369.77734 272.50195 C 374.28401 272.50195 377.79331 271.2438 380.30664 268.73047 C 382.90664 266.13047 384.20703 262.62117 384.20703 258.20117 C 384.20703 254.04117 383.03727 250.74698 380.69727 248.32031 C 378.35727 245.80698 374.97664 244.55078 370.55664 244.55078 L 355.86719 244.55078 z M 629.67188 248.45117 L 623.17188 270.81055 L 618.88086 283.94141 L 640.7207 283.94141 L 636.43164 270.81055 L 629.93164 248.45117 L 629.67188 248.45117 z M 677.28906 390.93164 C 682.22906 390.93164 686.73721 391.40799 690.81055 392.36133 C 694.97055 393.31466 698.91396 394.74372 702.64062 396.65039 L 698.34961 409.65039 C 695.05628 408.17706 691.63341 407.05148 688.08008 406.27148 C 684.52674 405.49148 681.23255 405.10156 678.19922 405.10156 C 672.99922 405.10156 669.14224 406.01203 666.62891 407.83203 C 664.11557 409.65203 662.85938 411.94737 662.85938 414.7207 C 662.85938 416.71404 663.33573 418.44854 664.28906 419.92188 C 665.2424 421.30854 666.50055 422.52055 668.06055 423.56055 C 669.62055 424.60055 671.39729 425.51102 673.39062 426.29102 C 675.38396 427.07102 677.42 427.80862 679.5 428.50195 C 682.62 429.54195 685.78357 430.75396 688.99023 432.14062 C 692.1969 433.44062 695.09922 435.13094 697.69922 437.21094 C 700.29922 439.29094 702.42365 441.84753 704.07031 444.88086 C 705.71698 447.82753 706.53906 451.46745 706.53906 455.80078 C 706.53906 460.22078 705.67279 464.03552 703.93945 467.24219 C 702.29279 470.44885 699.99745 473.13411 697.05078 475.30078 C 694.19078 477.46745 690.76596 479.07133 686.7793 480.11133 C 682.79263 481.15133 678.4593 481.67188 673.7793 481.67188 C 667.97263 481.67188 662.77302 481.10714 658.17969 479.98047 C 653.58635 478.76714 649.47008 477.12102 645.83008 475.04102 L 650.11914 461.26172 C 653.23914 462.99505 656.75039 464.46831 660.65039 465.68164 C 664.63706 466.89497 668.58047 467.50195 672.48047 467.50195 C 677.42047 467.50195 681.57898 466.54729 684.95898 464.64062 C 688.33898 462.64729 690.0293 459.61435 690.0293 455.54102 C 690.0293 453.54768 689.5107 451.85737 688.4707 450.4707 C 687.51737 449.08404 686.17279 447.87203 684.43945 446.83203 C 682.79279 445.79203 680.88737 444.9238 678.7207 444.23047 C 676.6407 443.45047 674.47404 442.67063 672.2207 441.89062 C 669.53404 441.02396 666.67396 439.98482 663.64062 438.77148 C 660.60729 437.47148 657.78945 435.82536 655.18945 433.83203 C 652.67612 431.75203 650.55365 429.19544 648.82031 426.16211 C 647.17365 423.12878 646.34961 419.40047 646.34961 414.98047 C 646.34961 411.68714 646.9124 408.56776 648.03906 405.62109 C 649.2524 402.67443 651.11557 400.11784 653.62891 397.95117 C 656.14224 395.78451 659.35 394.09419 663.25 392.88086 C 667.15 391.58086 671.82906 390.93164 677.28906 390.93164 z M 268.88867 392.49219 L 325.82812 392.49219 L 325.82812 406.79102 L 285.26953 406.79102 L 285.26953 428.24219 L 323.35938 428.24219 L 323.35938 442.54102 L 285.26953 442.54102 L 285.26953 465.81055 L 326.60938 465.81055 L 326.60938 480.11133 L 268.88867 480.11133 L 268.88867 392.49219 z M 332.9375 392.49219 L 350.87891 392.49219 L 365.82812 439.29102 L 372.32812 462.95117 L 372.58789 462.95117 L 379.08789 439.29102 L 394.03906 392.49219 L 411.97852 392.49219 L 381.29883 480.11133 L 363.61719 480.11133 L 332.9375 392.49219 z M 421.99414 392.49219 L 478.93359 392.49219 L 478.93359 406.79102 L 438.375 406.79102 L 438.375 428.24219 L 476.46484 428.24219 L 476.46484 442.54102 L 438.375 442.54102 L 438.375 465.81055 L 479.71484 465.81055 L 479.71484 480.11133 L 421.99414 480.11133 L 421.99414 392.49219 z M 494.10352 392.49219 L 512.30273 392.49219 L 540.9043 442.15039 C 542.7243 445.18372 544.32622 448.17443 545.71289 451.12109 C 547.18622 454.06776 548.44438 457.1449 549.48438 460.35156 L 549.87305 460.35156 C 549.17971 456.71156 548.61693 453.20031 548.18359 449.82031 C 547.83693 446.35365 547.66406 443.23427 547.66406 440.46094 L 547.66406 392.49219 L 564.56445 392.49219 L 564.56445 480.11133 L 547.66406 480.11133 L 517.76367 430.45117 C 515.94367 427.41784 514.29755 424.42714 512.82422 421.48047 C 511.43755 418.5338 510.22359 415.45862 509.18359 412.25195 L 508.79297 412.25195 C 509.4863 415.89195 510.00685 419.44544 510.35352 422.91211 C 510.78685 426.29211 511.00391 429.36729 511.00391 432.14062 L 511.00391 480.11133 L 494.10352 480.11133 L 494.10352 392.49219 z M 574.13086 392.49219 L 641.21094 392.49219 L 641.21094 407.05078 L 616.12109 406.79102 L 616.12109 480.11133 L 599.2207 480.11133 L 599.2207 406.79102 L 574.13086 407.05078 L 574.13086 392.49219 z "
       transform="translate(0,308.26772)"
       id="rect4136" />
  </g>
</svg>
