<?xml version="1.0" encoding="UTF-8" standalone="no"?>
<svg
   xmlns:dc="http://purl.org/dc/elements/1.1/"
   xmlns:cc="http://creativecommons.org/ns#"
   xmlns:rdf="http://www.w3.org/1999/02/22-rdf-syntax-ns#"
   xmlns:svg="http://www.w3.org/2000/svg"
   xmlns="http://www.w3.org/2000/svg"
   xmlns:sodipodi="http://sodipodi.sourceforge.net/DTD/sodipodi-0.dtd"
   xmlns:inkscape="http://www.inkscape.org/namespaces/inkscape"
   version="1.1"
   x="0px"
   y="0px"
   viewBox="0 0 100 100"
   enable-background="new 0 0 100 100"
   xml:space="preserve"
   id="svg2"
   inkscape:version="0.91 r13725"
   sodipodi:docname="perfect-fit.svg"
   width="100"
   height="100"><metadata
     id="metadata32"><rdf:RDF><cc:Work
         rdf:about=""><dc:format>image/svg+xml</dc:format><dc:type
           rdf:resource="http://purl.org/dc/dcmitype/StillImage" /><dc:title></dc:title></cc:Work></rdf:RDF></metadata><defs
     id="defs30" /><sodipodi:namedview
     pagecolor="#ffffff"
     bordercolor="#666666"
     borderopacity="1"
     objecttolerance="10"
     gridtolerance="10"
     guidetolerance="10"
     inkscape:pageopacity="0"
     inkscape:pageshadow="2"
     inkscape:window-width="1031"
     inkscape:window-height="657"
     id="namedview28"
     showgrid="false"
     inkscape:zoom="3.355625"
     inkscape:cx="50"
     inkscape:cy="62.5"
     inkscape:window-x="0"
     inkscape:window-y="0"
     inkscape:window-maximized="0"
     inkscape:current-layer="svg2" /><g
     id="g4160"
     transform="translate(-1.6495,24.8545)"><g
       transform="translate(0,-25)"
       id="g4"><polyline
         id="polyline6"
         points="21.021,28.271 29.496,34.433 26.259,44.401 34.739,38.243 43.218,44.401 39.977,34.433 48.457,28.271    37.976,28.271 34.739,18.307 31.501,28.271 21.021,28.271  " /></g><g
       transform="translate(0,-25)"
       id="g8"><polyline
         id="polyline10"
         points="54.848,28.271 63.328,34.433 60.086,44.401 68.566,38.243 77.041,44.401 73.803,34.433 82.285,28.271    71.803,28.271 68.566,18.307 65.329,28.271 54.848,28.271  " /></g><g
       transform="translate(0,-25)"
       id="g12"><polyline
         id="polyline14"
         points="4.104,65.858 12.584,72.021 9.347,81.984 17.822,75.826 26.302,81.984 23.065,72.021 31.546,65.858    21.065,65.858 17.822,55.89 14.59,65.858 4.104,65.858  " /></g><g
       transform="translate(0,-25)"
       id="g16"><polyline
         id="polyline18"
         points="37.932,65.858 46.412,72.021 43.175,81.984 51.65,75.826 60.13,81.984 56.893,72.021 65.373,65.858    54.887,65.858 51.65,55.89 48.413,65.858 37.932,65.858  " /></g><g
       transform="translate(0,-25)"
       id="g20"><polyline
         id="polyline22"
         points="71.764,65.858 80.239,72.021 76.996,81.984 85.477,75.826 93.957,81.984 90.72,72.021 99.195,65.858    88.721,65.858 85.477,55.89 82.24,65.858 71.764,65.858  " /></g></g></svg>