<?xml version="1.0" encoding="UTF-8" standalone="no"?>
<svg
   xmlns:dc="http://purl.org/dc/elements/1.1/"
   xmlns:cc="http://creativecommons.org/ns#"
   xmlns:rdf="http://www.w3.org/1999/02/22-rdf-syntax-ns#"
   xmlns:svg="http://www.w3.org/2000/svg"
   xmlns="http://www.w3.org/2000/svg"
   xmlns:sodipodi="http://sodipodi.sourceforge.net/DTD/sodipodi-0.dtd"
   xmlns:inkscape="http://www.inkscape.org/namespaces/inkscape"
   version="1.1"
   x="0px"
   y="0px"
   viewBox="0 0 100 100"
   enable-background="new 0 0 100 100"
   xml:space="preserve"
   id="svg2"
   inkscape:version="0.91 r13725"
   sodipodi:docname="record.svg"
   width="100"
   height="100"><metadata
     id="metadata20"><rdf:RDF><cc:Work
         rdf:about=""><dc:format>image/svg+xml</dc:format><dc:type
           rdf:resource="http://purl.org/dc/dcmitype/StillImage" /><dc:title /></cc:Work></rdf:RDF></metadata><defs
     id="defs18" /><sodipodi:namedview
     pagecolor="#ffffff"
     bordercolor="#666666"
     borderopacity="1"
     objecttolerance="10"
     gridtolerance="10"
     guidetolerance="10"
     inkscape:pageopacity="0"
     inkscape:pageshadow="2"
     inkscape:window-width="1276"
     inkscape:window-height="755"
     id="namedview16"
     showgrid="false"
     inkscape:zoom="4.4288604"
     inkscape:cx="48.780637"
     inkscape:cy="44.436662"
     inkscape:window-x="4"
     inkscape:window-y="1"
     inkscape:window-maximized="1"
     inkscape:current-layer="svg2" /><g
     id="g4"><g
       id="g6"><path
         d="M 50,0.5 C 22.662,0.5 0.5,22.662 0.5,50 0.5,77.338 22.662,99.5 50,99.5 77.338,99.5 99.5,77.338 99.5,50 99.5,22.662 77.338,0.5 50,0.5 Z M 24.258,63.971 c 0.12,0.541 0.099,1.372 0.42,2.266 0.145,0.451 0.304,0.936 0.474,1.449 0.117,0.534 0.491,0.998 0.752,1.523 0.304,0.505 0.538,1.081 0.986,1.523 l 1.211,1.428 1.436,1.215 c 0.442,0.445 1.018,0.675 1.522,0.982 0.526,0.262 0.989,0.632 1.527,0.752 0.516,0.166 1.003,0.326 1.456,0.475 0.897,0.318 1.71,0.297 2.254,0.417 0.554,0.077 0.872,0.122 0.872,0.122 0,0 -0.318,-0.018 -0.876,-0.053 -0.548,-0.084 -1.385,0.047 -2.308,-0.262 -0.467,-0.139 -0.968,-0.283 -1.499,-0.441 -0.554,-0.106 -1.034,-0.467 -1.583,-0.725 -0.526,-0.298 -1.127,-0.52 -1.597,-0.965 l -1.509,-1.212 -1.211,-1.51 C 26.14,70.49 25.914,69.89 25.616,69.362 25.362,68.811 24.997,68.334 24.887,67.779 24.731,67.241 24.579,66.737 24.444,66.27 c -0.307,-0.924 -0.173,-1.746 -0.261,-2.297 -0.034,-0.559 -0.051,-0.879 -0.051,-0.879 0,0 0.048,0.324 0.126,0.877 z m -7.841,-4.207 c 0.248,1.081 0.195,2.746 0.859,4.53 0.301,0.892 0.63,1.858 0.976,2.883 0.24,1.063 1.007,1.978 1.517,3.033 0.604,1.01 1.06,2.166 1.946,3.054 0.795,0.946 1.605,1.906 2.411,2.868 0.965,0.806 1.926,1.615 2.876,2.407 0.887,0.888 2.042,1.339 3.056,1.943 1.057,0.513 1.969,1.269 3.036,1.516 1.029,0.347 2.003,0.673 2.901,0.977 1.788,0.657 3.42,0.604 4.509,0.852 1.109,0.158 1.742,0.251 1.742,0.251 0,0 -0.636,-0.035 -1.753,-0.099 C 39.931,83.946 39.25,83.908 38.469,83.862 37.681,83.827 36.786,83.807 35.872,83.469 34.939,83.202 33.929,82.917 32.861,82.615 31.748,82.41 30.777,81.7 29.684,81.174 28.631,80.57 27.429,80.112 26.496,79.22 c -0.993,-0.805 -2,-1.627 -3.01,-2.445 -0.82,-1.008 -1.64,-2.016 -2.445,-3.008 -0.894,-0.934 -1.356,-2.132 -1.961,-3.182 -0.523,-1.095 -1.234,-2.061 -1.446,-3.184 -0.304,-1.071 -0.594,-2.09 -0.858,-3.025 -0.339,-0.922 -0.357,-1.801 -0.392,-2.583 -0.043,-0.776 -0.082,-1.455 -0.113,-2.015 -0.07,-1.115 -0.104,-1.756 -0.104,-1.756 0,0 0.09,0.63 0.25,1.742 z M 43.662,91.576 C 42.814,91.609 41.789,91.562 40.62,91.416 39.444,91.309 38.104,91.201 36.694,90.823 35.98,90.66 35.238,90.495 34.471,90.322 33.721,90.078 32.949,89.822 32.153,89.558 30.527,89.109 28.959,88.265 27.287,87.507 25.722,86.55 24.022,85.685 22.51,84.48 20.902,83.402 19.485,82.036 18.015,80.739 16.717,79.265 15.347,77.849 14.269,76.245 13.064,74.734 12.191,73.035 11.233,71.474 10.476,69.802 9.635,68.23 9.183,66.609 8.607,65.029 8.184,63.505 7.915,62.068 7.537,60.663 7.427,59.312 7.321,58.135 7.169,56.954 7.123,55.939 7.159,55.097 7.186,53.409 7.2,52.448 7.2,52.448 c 0,0 0.112,0.954 0.307,2.627 0.053,0.841 0.208,1.852 0.478,2.979 0.233,1.133 0.473,2.405 0.915,3.762 0.35,1.382 0.855,2.83 1.509,4.317 0.53,1.538 1.474,2.982 2.201,4.587 0.958,1.481 1.82,3.094 3.011,4.516 1.061,1.517 2.406,2.839 3.668,4.221 1.389,1.262 2.708,2.605 4.227,3.665 1.424,1.19 3.036,2.05 4.516,3.007 1.604,0.725 3.053,1.665 4.59,2.194 0.752,0.304 1.483,0.601 2.194,0.888 0.731,0.216 1.441,0.423 2.124,0.623 1.354,0.441 2.636,0.682 3.774,0.914 1.135,0.27 2.135,0.424 2.972,0.479 1.668,0.193 2.623,0.308 2.623,0.308 0,0 -0.962,0.013 -2.647,0.041 z M 50,69.541 C 39.208,69.541 30.458,60.792 30.458,50 30.458,39.208 39.207,30.458 50,30.458 60.792,30.458 69.541,39.207 69.541,50 69.541,60.792 60.792,69.541 50,69.541 Z M 74.361,34.568 c -0.117,-0.542 -0.09,-1.371 -0.396,-2.269 -0.142,-0.453 -0.297,-0.94 -0.457,-1.456 -0.109,-0.534 -0.482,-0.999 -0.736,-1.53 -0.299,-0.509 -0.525,-1.087 -0.969,-1.532 l -1.199,-1.443 -1.418,-1.229 c -0.438,-0.452 -1.015,-0.689 -1.516,-0.997 -0.523,-0.273 -0.979,-0.646 -1.518,-0.771 -0.516,-0.174 -1,-0.34 -1.452,-0.491 -0.894,-0.327 -1.707,-0.315 -2.251,-0.439 -0.551,-0.083 -0.869,-0.133 -0.869,-0.133 0,0 0.318,0.021 0.877,0.061 0.548,0.096 1.385,-0.028 2.305,0.286 0.461,0.142 0.965,0.297 1.495,0.459 0.55,0.112 1.027,0.48 1.571,0.739 0.527,0.303 1.124,0.537 1.587,0.982 l 1.499,1.229 1.193,1.522 c 0.442,0.469 0.66,1.074 0.951,1.605 0.25,0.551 0.606,1.031 0.711,1.589 0.151,0.538 0.295,1.042 0.426,1.512 0.297,0.926 0.154,1.746 0.238,2.301 0.025,0.56 0.041,0.878 0.041,0.878 0,0 -0.042,-0.317 -0.113,-0.873 z m 7.795,4.29 C 81.919,37.773 81.988,36.108 81.345,34.316 81.052,33.419 80.736,32.452 80.4,31.421 80.17,30.358 79.414,29.435 78.916,28.376 78.327,27.357 77.881,26.199 77.001,25.3 76.217,24.346 75.417,23.376 74.623,22.407 73.668,21.586 72.711,20.774 71.771,19.969 70.894,19.075 69.744,18.608 68.74,17.993 c -1.055,-0.52 -1.958,-1.286 -3.024,-1.544 -1.024,-0.357 -1.993,-0.696 -2.889,-1.007 -1.785,-0.674 -3.412,-0.643 -4.502,-0.901 -1.104,-0.169 -1.738,-0.268 -1.738,-0.268 0,0 0.638,0.042 1.753,0.12 0.563,0.037 1.241,0.082 2.021,0.133 0.789,0.046 1.684,0.071 2.596,0.421 0.93,0.275 1.936,0.571 3.002,0.886 1.109,0.218 2.074,0.937 3.159,1.473 1.046,0.615 2.243,1.085 3.167,1.99 0.98,0.816 1.98,1.647 2.98,2.475 0.81,1.017 1.623,2.036 2.416,3.036 0.889,0.94 1.336,2.143 1.928,3.202 0.517,1.1 1.216,2.071 1.414,3.194 0.291,1.077 0.566,2.094 0.826,3.036 0.332,0.924 0.34,1.81 0.363,2.585 0.035,0.781 0.066,1.459 0.096,2.019 0.053,1.116 0.082,1.754 0.082,1.754 0,0 -0.085,-0.63 -0.234,-1.739 z m 9.138,7.41 c 0,0 -0.103,-0.957 -0.278,-2.629 -0.045,-0.841 -0.19,-1.851 -0.445,-2.982 C 90.35,39.519 90.123,38.246 89.694,36.885 89.362,35.5 88.871,34.047 88.231,32.548 87.719,31.007 86.79,29.551 86.08,27.94 85.142,26.449 84.296,24.831 83.119,23.396 82.071,21.867 80.741,20.531 79.493,19.135 78.119,17.863 76.817,16.503 75.305,15.428 73.895,14.223 72.29,13.347 70.821,12.371 69.227,11.629 67.785,10.675 66.258,10.126 65.506,9.815 64.779,9.511 64.07,9.217 63.339,8.995 62.632,8.779 61.955,8.575 60.603,8.118 59.326,7.865 58.191,7.62 57.058,7.338 56.06,7.175 55.222,7.112 53.556,6.899 52.603,6.777 52.603,6.777 c 0,0 0.961,-0.008 2.646,-0.016 0.85,-0.028 1.873,0.028 3.042,0.19 1.174,0.12 2.513,0.24 3.92,0.636 0.711,0.167 1.448,0.344 2.215,0.523 0.75,0.254 1.521,0.516 2.312,0.788 1.619,0.466 3.182,1.325 4.846,2.1 1.551,0.975 3.243,1.858 4.741,3.082 1.598,1.094 3,2.473 4.457,3.79 1.28,1.485 2.635,2.913 3.696,4.53 1.19,1.521 2.041,3.234 2.984,4.806 0.738,1.677 1.561,3.258 2,4.887 0.559,1.583 0.965,3.109 1.221,4.552 0.363,1.414 0.455,2.761 0.549,3.939 0.14,1.182 0.174,2.198 0.133,3.041 -0.047,1.682 -0.071,2.643 -0.071,2.643 z"
         id="path8"
         inkscape:connector-curvature="0" /><circle
         cx="50"
         cy="50"
         r="2.6040001"
         id="circle10" /></g></g></svg>