<?xml version="1.0" encoding="UTF-8" standalone="no"?>
<svg
   xmlns:dc="http://purl.org/dc/elements/1.1/"
   xmlns:cc="http://creativecommons.org/ns#"
   xmlns:rdf="http://www.w3.org/1999/02/22-rdf-syntax-ns#"
   xmlns:svg="http://www.w3.org/2000/svg"
   xmlns="http://www.w3.org/2000/svg"
   xmlns:sodipodi="http://sodipodi.sourceforge.net/DTD/sodipodi-0.dtd"
   xmlns:inkscape="http://www.inkscape.org/namespaces/inkscape"
   version="1.1"
   x="0px"
   y="0px"
   viewBox="0 0 100 100"
   enable-background="new 0 0 100 100"
   xml:space="preserve"
   id="svg2"
   inkscape:version="0.91 r13725"
   sodipodi:docname="travel.svg"
   width="100"
   height="100"><metadata
     id="metadata24"><rdf:RDF><cc:Work
         rdf:about=""><dc:format>image/svg+xml</dc:format><dc:type
           rdf:resource="http://purl.org/dc/dcmitype/StillImage" /><dc:title></dc:title></cc:Work></rdf:RDF></metadata><defs
     id="defs22" /><sodipodi:namedview
     pagecolor="#ffffff"
     bordercolor="#666666"
     borderopacity="1"
     objecttolerance="10"
     gridtolerance="10"
     guidetolerance="10"
     inkscape:pageopacity="0"
     inkscape:pageshadow="2"
     inkscape:window-width="1276"
     inkscape:window-height="755"
     id="namedview20"
     showgrid="false"
     inkscape:zoom="4.078375"
     inkscape:cx="50"
     inkscape:cy="62.5"
     inkscape:window-x="4"
     inkscape:window-y="1"
     inkscape:window-maximized="1"
     inkscape:current-layer="svg2" /><path
     d="m 75.453058,81.759 c 1.751,0 3.171,-1.421 3.171,-3.158 0,-1.785 -1.42,-3.191 -3.171,-3.191 -1.765,0 -3.136,1.406 -3.136,3.191 10e-4,1.737 1.372,3.158 3.136,3.158 m -7.327,-3.158 c 0,-4.078 3.298,-7.34 7.327,-7.34 4.028,0 7.306,3.262 7.306,7.34 0,4.022 -3.277,7.307 -7.306,7.307 -4.029,-0.001 -7.327,-3.285 -7.327,-7.307"
     id="path4"
     inkscape:connector-curvature="0"
     style="fill:#000000" /><path
     d="m 22.293058,81.273 c 1.727,0 3.189,-1.434 3.189,-3.164 0,-1.771 -1.462,-3.164 -3.189,-3.164 -1.754,0 -3.195,1.393 -3.195,3.164 0,1.73 1.441,3.164 3.195,3.164 m -7.337,-3.164 c 0,-4.078 3.28,-7.326 7.337,-7.326 4.008,0 7.312,3.248 7.312,7.326 0,4.022 -3.305,7.307 -7.312,7.307 -4.056,-10e-4 -7.337,-3.285 -7.337,-7.307"
     id="path6"
     inkscape:connector-curvature="0"
     style="fill:#000000" /><path
     d="m 11.072058,38.156 c 1.174,-0.984 63.376,-24.064 63.376,-24.064 l 1.983,4.3 -69.8770002,27.077 c 0,0 1.817,-5.063 4.5180002,-7.313 z"
     id="path8"
     inkscape:connector-curvature="0"
     style="fill:#000000" /><path
     d="m 96.427058,70.333 c 0,0 0.085,-6.996 0,-7.518 -0.267,-1.758 -2.629,-3.747 -3.797,-4.978 -1.666,-1.747 -3.164,-3.646 -4.781,-5.435 -3.143,-3.475 -6.25,-6.983 -9.33,-10.513 -0.675,-0.77 -1.364,-1.529 -2.039,-2.296 -0.358,-0.446 -0.921,-0.735 -1.54,-0.735 0,0 -63.545,-0.024 -64.346,-0.024 -0.7560002,0 -2.4370002,2.809 -2.4370002,2.809 0,0 -5.509,12.05 -5.509,15.872 0,3.811 -0.116,0 -0.116,0 l 1.441,12.607 c 0,0 -0.299,0 -1.375,0 -1.101,0 -0.32,4.611 -0.32,4.611 0,1.309 1.311,2.335 2.612,2.335 l 6.3250002,0 c 0.355,-5.288 5.667,-9.507 11.078,-9.507 5.372,0 10.695,4.219 11.067,9.507 l 30.821,0 c 0.394,-5.245 5.695,-9.437 11.067,-9.437 5.414,0 10.674,4.191 11.074,9.437 l 8.755,0 c 1.322,0 2.56,-0.794 2.56,-2.109 0,0 0.886,-4.626 -0.147,-4.626 -1.042,0 -1.063,0 -1.063,0 z m -38.517,-18.25 c 0,1.762 -1.237,3.182 -2.784,3.182 l -42.88,0 c -1.519,0 -2.7600002,-0.781 -2.7600002,-3.182 0.443,-1.657 2.5730002,-6.646 3.0340002,-7.704 0.436,-1.041 1.34,-1.494 3.766,-1.494 l 38.841,0 c 1.547,0 2.784,1.42 2.784,3.175 l 0,6.023 z m 24.287,3.182 -17.473,-0.021 c -1.118,0 -2.039,-0.921 -2.039,-2.035 l 0,-8.291 c 0,-1.128 0.921,-2.032 2.018,-2.032 l 8.789,0 c 0.345,0 0.675,0.169 0.879,0.415 l 8.712,10.179 c 0.141,0.176 0.239,0.397 0.239,0.661 0,0.61 -0.521,1.124 -1.125,1.124 z"
     id="path10"
     inkscape:connector-curvature="0"
     style="fill:#000000" /><path
     d="m 70.447058,40.009 3.832,-0.162 c 0,0 -1.097,-10.067 0.127,-21.706 -2.531,0.077 -3.959,-0.081 -3.959,-0.081 l 0,21.949 z"
     id="path12"
     inkscape:connector-curvature="0"
     style="fill:#000000" /><path
     d="m 33.231058,53.725 0,-8.298 c 0,-1.125 0.921,-3.08 2.018,-3.08 l -9.576,0 c 1.547,0 2.784,2.461 2.784,4.219 l 0,6.027 c 0,1.765 -1.237,3.186 -2.784,3.186 l 11.981,0 -2.384,-0.015 c -1.118,0 -2.039,-0.929 -2.039,-2.039 z"
     id="path14"
     inkscape:connector-curvature="0"
     style="fill:#000000" /></svg>