<?xml version="1.0" encoding="UTF-8" standalone="no"?>
<!-- Created with Inkscape (http://www.inkscape.org/) -->

<svg
   xmlns:dc="http://purl.org/dc/elements/1.1/"
   xmlns:cc="http://creativecommons.org/ns#"
   xmlns:rdf="http://www.w3.org/1999/02/22-rdf-syntax-ns#"
   xmlns:svg="http://www.w3.org/2000/svg"
   xmlns="http://www.w3.org/2000/svg"
   xmlns:sodipodi="http://sodipodi.sourceforge.net/DTD/sodipodi-0.dtd"
   xmlns:inkscape="http://www.inkscape.org/namespaces/inkscape"
   width="297mm"
   height="210mm"
   viewBox="0 0 1052.3622 744.09448"
   id="svg2"
   version="1.1"
   inkscape:version="0.91 r13725"
   sodipodi:docname="weddings.svg">
  <defs
     id="defs4" />
  <sodipodi:namedview
     id="base"
     pagecolor="#ffffff"
     bordercolor="#666666"
     borderopacity="1.0"
     inkscape:pageopacity="0.0"
     inkscape:pageshadow="2"
     inkscape:zoom="0.37802734"
     inkscape:cx="505.56683"
     inkscape:cy="473.28619"
     inkscape:document-units="px"
     inkscape:current-layer="layer1"
     showgrid="false"
     inkscape:window-width="1276"
     inkscape:window-height="755"
     inkscape:window-x="4"
     inkscape:window-y="1"
     inkscape:window-maximized="1"
     objecttolerance="20" />
  <metadata
     id="metadata7">
    <rdf:RDF>
      <cc:Work
         rdf:about="">
        <dc:format>image/svg+xml</dc:format>
        <dc:type
           rdf:resource="http://purl.org/dc/dcmitype/StillImage" />
        <dc:title></dc:title>
      </cc:Work>
    </rdf:RDF>
  </metadata>
  <g
     inkscape:label="Layer 1"
     inkscape:groupmode="layer"
     id="layer1"
     transform="translate(0,-308.26772)">
    <path
       style="opacity:1;fill:#222831;fill-opacity:0.90196079;fill-rule:nonzero;stroke:none;stroke-width:14.41399956;stroke-linecap:round;stroke-linejoin:bevel;stroke-miterlimit:4;stroke-dasharray:none;stroke-opacity:0"
       d="M -275.11328 -111.24023 L -275.11328 821.34375 L 1277.7227 821.34375 L 1277.7227 -111.24023 L -275.11328 -111.24023 z M 716.5293 309.68164 C 725.8893 309.68164 734.29471 311.63125 741.74805 315.53125 L 737.58789 328.40039 C 734.55456 326.75372 731.30456 325.54172 727.83789 324.76172 C 724.45789 323.89505 721.12146 323.46094 717.82812 323.46094 C 708.90146 323.46094 701.88091 326.19039 696.76758 331.65039 C 691.74091 337.02372 689.22852 345.1276 689.22852 355.96094 C 689.22852 360.55427 689.7913 364.71474 690.91797 368.44141 C 692.04464 372.16807 693.60432 375.37388 695.59766 378.06055 C 697.67766 380.66055 700.06138 382.69854 702.74805 384.17188 C 705.52138 385.55854 708.51208 386.25195 711.71875 386.25195 C 714.05875 386.25195 716.26766 385.90427 718.34766 385.21094 C 720.42766 384.43094 722.24859 383.30536 723.80859 381.83203 C 725.36859 380.27203 726.58255 378.36466 727.44922 376.11133 C 728.40255 373.77133 728.87891 371.08411 728.87891 368.05078 L 728.87891 362.85156 L 711.97852 362.85156 L 711.97852 348.81055 L 745.25781 348.81055 L 745.25781 398.86133 L 730.69922 398.86133 L 728.87891 388.5918 C 727.05891 391.79846 724.50232 394.52792 721.20898 396.78125 C 718.00232 398.94792 713.79766 400.03125 708.59766 400.03125 C 703.22432 400.03125 698.28596 398.99211 693.7793 396.91211 C 689.3593 394.74544 685.54456 391.75474 682.33789 387.94141 C 679.13122 384.04141 676.66107 379.40458 674.92773 374.03125 C 673.1944 368.57125 672.32812 362.5476 672.32812 355.96094 C 672.32812 348.68094 673.32503 342.18094 675.31836 336.46094 C 677.39836 330.74094 680.34487 325.93125 684.1582 322.03125 C 688.0582 318.04458 692.73922 315.01164 698.19922 312.93164 C 703.65922 310.76497 709.7693 309.68164 716.5293 309.68164 z M 788.8418 309.68164 C 793.7818 309.68164 798.28799 310.15799 802.36133 311.11133 C 806.52133 312.06466 810.46474 313.49372 814.19141 315.40039 L 809.90039 328.40039 C 806.60706 326.92706 803.18419 325.80148 799.63086 325.02148 C 796.07753 324.24148 792.78529 323.85156 789.75195 323.85156 C 784.55195 323.85156 780.69497 324.76203 778.18164 326.58203 C 775.66831 328.40203 774.41016 330.69737 774.41016 333.4707 C 774.41016 335.46404 774.88846 337.19854 775.8418 338.67188 C 776.79513 340.05854 778.05133 341.27055 779.61133 342.31055 C 781.17133 343.35055 782.94807 344.26102 784.94141 345.04102 C 786.93474 345.82102 788.97078 346.55862 791.05078 347.25195 C 794.17078 348.29195 797.33435 349.50396 800.54102 350.89062 C 803.74768 352.19062 806.65195 353.88094 809.25195 355.96094 C 811.85195 358.04094 813.97443 360.59753 815.62109 363.63086 C 817.26776 366.57753 818.0918 370.21745 818.0918 374.55078 C 818.0918 378.97078 817.22357 382.78552 815.49023 385.99219 C 813.84357 389.19885 811.54823 391.88411 808.60156 394.05078 C 805.74156 396.21745 802.31674 397.82133 798.33008 398.86133 C 794.34341 399.90133 790.01008 400.42188 785.33008 400.42188 C 779.52341 400.42188 774.3238 399.85714 769.73047 398.73047 C 765.13714 397.51714 761.02086 395.87102 757.38086 393.79102 L 761.67188 380.01172 C 764.79188 381.74505 768.30117 383.21831 772.20117 384.43164 C 776.18784 385.64497 780.13125 386.25195 784.03125 386.25195 C 788.97125 386.25195 793.13172 385.29729 796.51172 383.39062 C 799.89172 381.39729 801.58008 378.36435 801.58008 374.29102 C 801.58008 372.29768 801.06148 370.60737 800.02148 369.2207 C 799.06815 367.83404 797.72357 366.62203 795.99023 365.58203 C 794.34357 364.54203 792.43815 363.6738 790.27148 362.98047 C 788.19148 362.20047 786.02482 361.42063 783.77148 360.64062 C 781.08482 359.77396 778.22474 358.73482 775.19141 357.52148 C 772.15807 356.22148 769.34023 354.57536 766.74023 352.58203 C 764.2269 350.50203 762.10443 347.94544 760.37109 344.91211 C 758.72443 341.87878 757.90039 338.15047 757.90039 333.73047 C 757.90039 330.43714 758.46513 327.31776 759.5918 324.37109 C 760.80513 321.42443 762.66831 318.86784 765.18164 316.70117 C 767.69497 314.53451 770.90078 312.84419 774.80078 311.63086 C 778.70078 310.33086 783.3818 309.68164 788.8418 309.68164 z M 184.51953 311.24219 L 201.67969 311.24219 L 209.34961 346.86133 C 209.69628 348.68133 210.0862 351.02086 210.51953 353.88086 C 211.03953 356.74086 211.51589 359.86219 211.94922 363.24219 C 212.38255 366.62219 212.77247 370.17372 213.11914 373.90039 C 213.46581 377.62706 213.72706 381.26698 213.90039 384.82031 L 214.28906 384.82031 C 214.7224 381.35365 215.2007 377.84435 215.7207 374.29102 C 216.32737 370.65102 216.9324 367.22815 217.53906 364.02148 C 218.14573 360.81482 218.75271 357.91055 219.35938 355.31055 C 219.96604 352.71055 220.52883 350.63031 221.04883 349.07031 L 232.75 311.24219 L 248.74023 311.24219 L 260.43945 349.07031 C 260.95945 350.63031 261.52224 352.71055 262.12891 355.31055 C 262.73557 357.91055 263.34255 360.81482 263.94922 364.02148 C 264.55589 367.22815 265.12062 370.65102 265.64062 374.29102 C 266.24729 377.84435 266.76589 381.35365 267.19922 384.82031 L 267.58984 384.82031 C 267.76318 381.26698 268.02247 377.62706 268.36914 373.90039 C 268.71581 370.17372 269.10573 366.62219 269.53906 363.24219 C 269.9724 359.86219 270.40651 356.74086 270.83984 353.88086 C 271.27318 351.02086 271.70729 348.68133 272.14062 346.86133 L 279.81055 311.24219 L 296.9707 311.24219 L 276.94922 398.86133 L 260.04883 398.86133 L 246.14062 352.9707 C 245.62062 351.23737 245.10008 349.24552 244.58008 346.99219 C 244.14674 344.65219 243.71263 342.26846 243.2793 339.8418 L 241.98047 332.56055 C 241.6338 330.13388 241.28612 327.92497 240.93945 325.93164 L 240.54883 325.93164 C 240.20216 327.92497 239.81224 330.13388 239.37891 332.56055 C 239.03224 334.98721 238.64232 337.41513 238.20898 339.8418 C 237.77565 342.26846 237.2993 344.65219 236.7793 346.99219 C 236.34596 349.24552 235.86961 351.23737 235.34961 352.9707 L 221.43945 398.86133 L 204.53906 398.86133 L 184.51953 311.24219 z M 308.33008 311.24219 L 365.27148 311.24219 L 365.27148 325.54102 L 324.71094 325.54102 L 324.71094 346.99219 L 362.80078 346.99219 L 362.80078 361.29102 L 324.71094 361.29102 L 324.71094 384.56055 L 366.05078 384.56055 L 366.05078 398.86133 L 308.33008 398.86133 L 308.33008 311.24219 z M 380.43945 311.24219 L 407.74023 311.24219 C 422.30023 311.24219 433.39286 314.96854 441.01953 322.42188 C 448.73286 329.78854 452.58984 340.53544 452.58984 354.66211 C 452.58984 369.22211 448.73286 380.22831 441.01953 387.68164 C 433.39286 395.13497 422.30023 398.86133 407.74023 398.86133 L 380.43945 398.86133 L 380.43945 311.24219 z M 466.51367 311.24219 L 493.81445 311.24219 C 508.37445 311.24219 519.46708 314.96854 527.09375 322.42188 C 534.80708 329.78854 538.66406 340.53544 538.66406 354.66211 C 538.66406 369.22211 534.80708 380.22831 527.09375 387.68164 C 519.46708 395.13497 508.37445 398.86133 493.81445 398.86133 L 466.51367 398.86133 L 466.51367 311.24219 z M 552.58789 311.24219 L 569.48828 311.24219 L 569.48828 398.86133 L 552.58789 398.86133 L 552.58789 311.24219 z M 587.88086 311.24219 L 606.08203 311.24219 L 634.68164 360.90039 C 636.50164 363.93372 638.10552 366.92443 639.49219 369.87109 C 640.96552 372.81776 642.22172 375.8949 643.26172 379.10156 L 643.65039 379.10156 C 642.95706 375.46156 642.39427 371.95031 641.96094 368.57031 C 641.61427 365.10365 641.44141 361.98427 641.44141 359.21094 L 641.44141 311.24219 L 658.3418 311.24219 L 658.3418 398.86133 L 641.44141 398.86133 L 611.54102 349.20117 C 609.72102 346.16784 608.0749 343.17714 606.60156 340.23047 C 605.2149 337.2838 604.00094 334.20862 602.96094 331.00195 L 602.57227 331.00195 C 603.2656 334.64195 603.78419 338.19544 604.13086 341.66211 C 604.56419 345.04211 604.78125 348.11729 604.78125 350.89062 L 604.78125 398.86133 L 587.88086 398.86133 L 587.88086 311.24219 z M 397.33984 325.80078 L 397.33984 384.30078 L 407.74023 384.30078 C 412.07357 384.30078 415.97279 383.73799 419.43945 382.61133 C 422.90612 381.48466 425.81039 379.70792 428.15039 377.28125 C 430.57706 374.85458 432.44023 371.77745 433.74023 368.05078 C 435.04023 364.32411 435.68945 359.86211 435.68945 354.66211 C 435.68945 349.46211 435.04023 345.04039 433.74023 341.40039 C 432.44023 337.67372 430.57706 334.68497 428.15039 332.43164 C 425.81039 330.09164 422.90612 328.40133 419.43945 327.36133 C 415.97279 326.32133 412.07357 325.80078 407.74023 325.80078 L 397.33984 325.80078 z M 483.41406 325.80078 L 483.41406 384.30078 L 493.81445 384.30078 C 498.14779 384.30078 502.04701 383.73799 505.51367 382.61133 C 508.98034 381.48466 511.88461 379.70792 514.22461 377.28125 C 516.65128 374.85458 518.51445 371.77745 519.81445 368.05078 C 521.11445 364.32411 521.76367 359.86211 521.76367 354.66211 C 521.76367 349.46211 521.11445 345.04039 519.81445 341.40039 C 518.51445 337.67372 516.65128 334.68497 514.22461 332.43164 C 511.88461 330.09164 508.98034 328.40133 505.51367 327.36133 C 502.04701 326.32133 498.14779 325.80078 493.81445 325.80078 L 483.41406 325.80078 z "
       transform="translate(0,308.26772)"
       id="rect4136" />
  </g>
</svg>
